<svg xmlns="http://www.w3.org/2000/svg" width="800" height="1000" viewBox="0 0 800 1000">
<defs><linearGradient id="sb" x1="0" y1="0" x2="1" y2="1"><stop offset="0" stop-color="#141414"/><stop offset="1" stop-color="#080808"/></linearGradient>
<linearGradient id="sbar" x1="0" y1="0" x2="1" y2="0"><stop offset="0" stop-color="#0099ff"/><stop offset="1" stop-color="#7fe0ff"/></linearGradient></defs>
<rect width="800" height="1000" fill="url(#sb)"/>
<text x="400" y="130" font-family="Arial" font-size="30" font-weight="700" fill="#fff" text-anchor="middle">Yetkinlikler</text>
<text x="400" y="168" font-family="Arial" font-size="16" fill="#888" text-anchor="middle">Saldırıdan savunmaya</text>
<g transform="translate(400 400)">
<g opacity="0.08" stroke="#fff" fill="none"><polygon points="0,-150 130,-75 130,75 0,150 -130,75 -130,-75"/><polygon points="0,-100 87,-50 87,50 0,100 -87,50 -87,-50"/><polygon points="0,-50 43,-25 43,25 0,50 -43,25 -43,-25"/></g>
<polygon points="0,-135 118,-68 112,64 0,120 -100,58 -108,-62" fill="rgba(0,153,255,0.18)" stroke="#0099ff" stroke-width="2.5"/>
<g fill="#0099ff"><circle cx="0" cy="-135" r="4"/><circle cx="118" cy="-68" r="4"/><circle cx="112" cy="64" r="4"/><circle cx="0" cy="120" r="4"/><circle cx="-100" cy="58" r="4"/><circle cx="-108" cy="-62" r="4"/></g>
</g>
<g font-family="Arial" font-size="15" fill="#aaa" text-anchor="middle">
<text x="400" y="230">Red Team</text><text x="620" y="335">Ağ/Sistem</text><text x="620" y="490">Python</text>
<text x="400" y="560">Pentest</text><text x="200" y="490">Kripto</text><text x="200" y="335">SDLC</text></g>
<g transform="translate(150 640)"><text x="0" y="16" font-family="Arial" font-size="16" fill="#ddd">Red Team Ops</text><text x="500" y="16" font-family="Arial" font-size="15" fill="#7fe0ff" text-anchor="end">90%</text><rect x="0" y="26" width="500" height="10" rx="5" fill="#222"/><rect x="0" y="26" width="450" height="10" rx="5" fill="url(#sbar)"/><text x="0" y="78" font-family="Arial" font-size="16" fill="#ddd">Ağ &amp; Sistem</text><text x="500" y="78" font-family="Arial" font-size="15" fill="#7fe0ff" text-anchor="end">85%</text><rect x="0" y="88" width="500" height="10" rx="5" fill="#222"/><rect x="0" y="88" width="425" height="10" rx="5" fill="url(#sbar)"/><text x="0" y="140" font-family="Arial" font-size="16" fill="#ddd">Python</text><text x="500" y="140" font-family="Arial" font-size="15" fill="#7fe0ff" text-anchor="end">85%</text><rect x="0" y="150" width="500" height="10" rx="5" fill="#222"/><rect x="0" y="150" width="425" height="10" rx="5" fill="url(#sbar)"/><text x="0" y="202" font-family="Arial" font-size="16" fill="#ddd">Pentest</text><text x="500" y="202" font-family="Arial" font-size="15" fill="#7fe0ff" text-anchor="end">80%</text><rect x="0" y="212" width="500" height="10" rx="5" fill="#222"/><rect x="0" y="212" width="400" height="10" rx="5" fill="url(#sbar)"/><text x="0" y="264" font-family="Arial" font-size="16" fill="#ddd">Kriptoloji</text><text x="500" y="264" font-family="Arial" font-size="15" fill="#7fe0ff" text-anchor="end">75%</text><rect x="0" y="274" width="500" height="10" rx="5" fill="#222"/><rect x="0" y="274" width="375" height="10" rx="5" fill="url(#sbar)"/></g></svg>