<svg xmlns="http://www.w3.org/2000/svg" width="904" height="1200" viewBox="0 0 904 1200">
<defs><linearGradient id="ab" x1="0" y1="0" x2="1" y2="1"><stop offset="0" stop-color="#0d1418"/><stop offset="1" stop-color="#060809"/></linearGradient>
<radialGradient id="ag" cx="0.5" cy="0.4" r="0.6"><stop offset="0" stop-color="#0099ff" stop-opacity="0.15"/><stop offset="1" stop-color="#0099ff" stop-opacity="0"/></radialGradient></defs>
<rect width="904" height="1200" fill="url(#ab)"/><rect width="904" height="1200" fill="url(#ag)"/>
<g opacity="0.05" font-family="monospace" font-size="27" fill="#0099ff"><text x="243" y="327">10011001110</text><text x="237" y="370">10000101111110</text><text x="374" y="259">010111</text><text x="431" y="1098">110101010011</text><text x="127" y="189">1010100111000</text><text x="386" y="737">10010000011100</text><text x="347" y="702">01111011011</text><text x="264" y="1127">1011010011</text><text x="361" y="782">1000111110</text><text x="372" y="439">11110001010</text><text x="335" y="443">001101001011</text><text x="230" y="307">010110</text><text x="634" y="767">11111111</text><text x="581" y="898">100011</text><text x="572" y="514">111001</text><text x="122" y="560">001001</text><text x="763" y="307">10010010</text><text x="258" y="1037">100000</text><text x="245" y="620">01101011</text><text x="52" y="1028">00000001001</text><text x="323" y="381">01111110110</text><text x="130" y="67">000111010111</text><text x="430" y="916">0001010100111</text><text x="124" y="1010">1010010</text><text x="241" y="856">001001</text><text x="124" y="112">1110000</text><text x="567" y="264">01000001111111</text><text x="85" y="828">01011010001110</text></g>
<g transform="translate(452 432)">
<path d="M0 -127L108 -72V63C108 145 59 199 0 226C-59 199 -108 145 -108 63V-72Z" fill="#0d1a22" stroke="#0099ff" stroke-width="3"/>
<path d="M-41 9l30 33 57 -68" fill="none" stroke="#7fe0ff" stroke-width="6" stroke-linecap="round" stroke-linejoin="round"/></g>
<text x="452" y="744" font-family="Arial, Helvetica, sans-serif" font-size="90" font-weight="800" fill="#fff" text-anchor="middle">Nida Subaşı</text>
<text x="452" y="816" font-family="Arial, Helvetica, sans-serif" font-size="41" fill="#7fe0ff" text-anchor="middle" letter-spacing="3">CYBER SECURITY</text>
<line x1="289" y1="852" x2="615" y2="852" stroke="#0099ff" stroke-width="1" opacity="0.4"/>
<text x="452" y="912" font-family="Arial, Helvetica, sans-serif" font-size="33" fill="#8aa" text-anchor="middle">Pentest · Red Team · Python</text>
</svg>