<svg xmlns="http://www.w3.org/2000/svg" width="800" height="600" viewBox="0 0 800 600">
<defs><linearGradient id="bgOS" x1="0" y1="0" x2="1" y2="1">
<stop offset="0" stop-color="#101414"/><stop offset="1" stop-color="#080a0a"/></linearGradient>
<linearGradient id="acOS" x1="0" y1="0" x2="0" y2="1"><stop offset="0" stop-color="#0099ff"/><stop offset="1" stop-color="#00d4a0"/></linearGradient>
<linearGradient id="barOS" x1="0" y1="1" x2="0" y2="0"><stop offset="0" stop-color="#0099ff" stop-opacity=".9"/><stop offset="1" stop-color="#00d4a0" stop-opacity=".9"/></linearGradient></defs>
<g opacity="0.05" stroke="#fff"><path d="M0 100H800M0 200H800M0 300H800M0 400H800M0 500H800"/></g>
<!-- masaustu uygulama penceresi -->
<rect x="120" y="90" width="560" height="360" rx="16" fill="#1a1a1a" stroke="#333" stroke-width="2"/>
<rect x="120" y="90" width="560" height="38" rx="16" fill="#141414"/>
<rect x="120" y="112" width="560" height="16" fill="#141414"/>
<circle cx="146" cy="109" r="6" fill="#ff5f56"/><circle cx="166" cy="109" r="6" fill="#ffbd2e"/><circle cx="186" cy="109" r="6" fill="#27c93f"/>
<text x="400" y="114" font-family="monospace" font-size="13" fill="#666" text-anchor="middle">OptiStock — database.db</text>
<!-- sol menu -->
<rect x="120" y="128" width="96" height="322" fill="#0d0d0d"/>
<rect x="132" y="150" width="72" height="30" rx="8" fill="none" stroke="url(#acOS)" stroke-width="2"/>
<text x="168" y="169" font-family="monospace" font-size="11" fill="#4a8f7f" text-anchor="middle">DASH</text>
<text x="168" y="215" font-family="monospace" font-size="11" fill="#3a6f63" text-anchor="middle">STOK</text>
<text x="168" y="255" font-family="monospace" font-size="11" fill="#3a6f63" text-anchor="middle">CRM</text>
<text x="168" y="295" font-family="monospace" font-size="11" fill="#3a6f63" text-anchor="middle">SATIS</text>
<!-- ust metrik kartlari -->
<g font-family="monospace">
<rect x="236" y="146" width="132" height="52" rx="8" fill="#0d0d0d" stroke="#262626"/>
<text x="248" y="167" font-size="11" fill="#3a6f63">CIRO</text><text x="248" y="188" font-size="15" fill="#e8e8e8">&#8378;47.837</text>
<rect x="380" y="146" width="132" height="52" rx="8" fill="#0d0d0d" stroke="#262626"/>
<text x="392" y="167" font-size="11" fill="#3a6f63">URUN</text><text x="392" y="188" font-size="15" fill="#e8e8e8">8</text>
<rect x="524" y="146" width="132" height="52" rx="8" fill="#0d0d0d" stroke="#262626"/>
<text x="536" y="167" font-size="11" fill="#3a6f63">MUSTERI</text><text x="536" y="188" font-size="15" fill="#e8e8e8">6</text>
</g>
<!-- 7 gunluk satis grafigi -->
<rect x="236" y="212" width="276" height="150" rx="8" fill="#0d0d0d" stroke="#262626"/>
<text x="248" y="234" font-family="monospace" font-size="11" fill="#3a6f63">SON 7 GUN</text>
<g>
<rect x="256" y="308" width="22" height="40" rx="3" fill="url(#barOS)" opacity=".55"/>
<rect x="288" y="290" width="22" height="58" rx="3" fill="url(#barOS)" opacity=".65"/>
<rect x="320" y="316" width="22" height="32" rx="3" fill="url(#barOS)" opacity=".5"/>
<rect x="352" y="272" width="22" height="76" rx="3" fill="url(#barOS)" opacity=".8"/>
<rect x="384" y="298" width="22" height="50" rx="3" fill="url(#barOS)" opacity=".6"/>
<rect x="416" y="258" width="22" height="90" rx="3" fill="url(#barOS)"/>
<rect x="448" y="282" width="22" height="66" rx="3" fill="url(#barOS)" opacity=".75"/>
</g>
<!-- dusuk stok uyarisi -->
<rect x="524" y="212" width="132" height="150" rx="8" fill="#0d0d0d" stroke="#262626"/>
<text x="536" y="234" font-family="monospace" font-size="11" fill="#3a6f63">DUSUK STOK</text>
<g font-family="monospace" font-size="10">
<text x="536" y="258" fill="#ffbd2e">! MX Keys</text><text x="536" y="273" fill="#666">2 adet</text>
<text x="536" y="298" fill="#ffbd2e">! WD SSD</text><text x="536" y="313" fill="#666">3 adet</text>
<text x="536" y="338" fill="#27c93f">stok: OK</text>
</g>
<!-- alt durum satiri -->
<g font-family="monospace" font-size="11">
<text x="236" y="398" fill="#4a8f7f">python optistock.py</text>
<text x="236" y="418" fill="#3a6f63">sqlite3 &#183; yerel &#183; <tspan fill="#00d4a0">cevrimdisi</tspan></text>
<text x="236" y="438" fill="#3a6f63">flet (flutter desktop) <tspan fill="#0099ff">v0.24</tspan></text>
</g>
<!-- baglanti cizgileri -->
<g stroke="url(#acOS)" stroke-width="1.3" opacity="0.5" fill="none">
<path d="M60 200H110"/><path d="M60 300H110"/><path d="M690 200H740"/><path d="M690 320H740"/></g>
<g font-family="monospace" font-size="12" fill="#3a6f63">
<text x="18" y="204">stok</text><text x="18" y="304">crm</text>
<text x="748" y="204">satis</text><text x="748" y="324">rapor</text></g>
<text x="400" y="500" font-family="Arial, sans-serif" font-size="20" font-weight="600" fill="#f0f0f0" text-anchor="middle" letter-spacing="1">OPTISTOCK &#183; STOK &amp; CRM</text>
<text x="400" y="530" font-family="Arial, sans-serif" font-size="13" fill="#00d4a0" text-anchor="middle" letter-spacing="2">BITIRME PROJESI &#8212; PYTHON &#183; FLET &#183; SQLITE</text>
</svg>
