<svg xmlns="http://www.w3.org/2000/svg" width="800" height="600" viewBox="0 0 800 600">
<defs><linearGradient id="bg2" x1="0" y1="0" x2="1" y2="1">
<stop offset="0" stop-color="#161213"/><stop offset="1" stop-color="#0a0808"/></linearGradient>
<radialGradient id="glow2" cx="0.5" cy="0.42" r="0.5"><stop offset="0" stop-color="#ff3b3b" stop-opacity="0.22"/><stop offset="1" stop-color="#ff3b3b" stop-opacity="0"/></radialGradient></defs>
<!-- transparan arka plan -->
<rect width="800" height="600" fill="url(#glow2)"/>
<g opacity="0.05" stroke="#fff"><circle cx="400" cy="250" r="90" fill="none"/><circle cx="400" cy="250" r="150" fill="none"/><circle cx="400" cy="250" r="210" fill="none"/></g>
<path d="M400 140L470 172V250C470 305 438 340 400 355C362 340 330 305 330 250V172Z" fill="#1e1516" stroke="#ff3b3b" stroke-width="2.5"/>
<path d="M372 250l20 22 44-46" fill="none" stroke="#ff5f56" stroke-width="4" stroke-linecap="round" stroke-linejoin="round"/>
<g font-family="monospace" font-size="13" fill="#c98a8a">
<text x="150" y="430">[+] Initial Access ....... <tspan fill="#27c93f">OK</tspan></text>
<text x="150" y="458">[+] Privilege Escalation . <tspan fill="#27c93f">OK</tspan></text>
<text x="150" y="486">[+] Lateral Movement ..... <tspan fill="#27c93f">OK</tspan></text>
<text x="150" y="514">[+] Persistence .......... <tspan fill="#ffbd2e">RUN</tspan></text>
</g>
<g stroke="#ff3b3b" stroke-width="1.4" opacity="0.55" fill="none">
<path d="M120 200L250 240"/><path d="M680 200L550 240"/><path d="M120 320L250 300"/><path d="M680 320L550 300"/></g>
<circle cx="120" cy="200" r="5" fill="#ff3b3b"/><circle cx="680" cy="200" r="5" fill="#ff3b3b"/>
<circle cx="120" cy="320" r="5" fill="#ff3b3b"/><circle cx="680" cy="320" r="5" fill="#ff3b3b"/>
<text x="400" y="560" font-family="Arial, sans-serif" font-size="21" font-weight="600" fill="#f0f0f0" text-anchor="middle" letter-spacing="1">RED TEAM OPERATIONS · CRTOM</text>
</svg>