<svg xmlns="http://www.w3.org/2000/svg" width="800" height="600" viewBox="0 0 800 600">
<defs><linearGradient id="bg1" x1="0" y1="0" x2="1" y2="1">
<stop offset="0" stop-color="#141414"/><stop offset="1" stop-color="#0a0a0a"/></linearGradient>
<linearGradient id="ac1" x1="0" y1="0" x2="1" y2="0"><stop offset="0" stop-color="#0099ff"/><stop offset="1" stop-color="#7fe0ff"/></linearGradient></defs>
<!-- transparan arka plan -->
<g opacity="0.06" stroke="#fff"><path d="M0 150H800M0 300H800M0 450H800M200 0V600M400 0V600M600 0V600"/></g>
<rect x="120" y="110" width="560" height="380" rx="14" fill="#1c1c1c" stroke="#2e2e2e"/>
<rect x="120" y="110" width="560" height="40" rx="14" fill="#232323"/>
<circle cx="150" cy="130" r="6" fill="#ff5f56"/><circle cx="172" cy="130" r="6" fill="#ffbd2e"/><circle cx="194" cy="130" r="6" fill="#27c93f"/>
<text x="400" y="135" font-family="monospace" font-size="14" fill="#888" text-anchor="middle">kali@pentest: ~/lab</text>
<g font-family="monospace" font-size="15">
<text x="145" y="185" fill="#7fe0ff">$ nmap -sS -sV 10.0.0.0/24</text>
<text x="145" y="215" fill="#8a8a8a">Starting Nmap scan...</text>
<text x="145" y="243" fill="#8a8a8a">Host 10.0.0.14 <tspan fill="#27c93f">up</tspan>  (0.012s latency)</text>
<text x="145" y="271" fill="#8a8a8a">22/tcp  <tspan fill="#27c93f">open</tspan>  ssh   OpenSSH 8.2</text>
<text x="145" y="299" fill="#8a8a8a">80/tcp  <tspan fill="#27c93f">open</tspan>  http  nginx 1.18</text>
<text x="145" y="327" fill="#8a8a8a">443/tcp <tspan fill="#27c93f">open</tspan>  https</text>
<text x="145" y="360" fill="#7fe0ff">$ msfconsole</text>
<text x="145" y="388" fill="#ff5f56">[*] exploit/multi/handler</text>
<text x="145" y="416" fill="#8a8a8a">msf6 > <tspan fill="#7fe0ff">run</tspan> <tspan fill="#e0e0e0">_</tspan></text>
</g>
<g><circle cx="640" cy="200" r="5" fill="url(#ac1)"/><circle cx="600" cy="260" r="4" fill="#0099ff"/><circle cx="660" cy="300" r="4" fill="#0099ff"/>
<path d="M640 200L600 260M640 200L660 300M600 260L660 300" stroke="#0099ff" stroke-width="1.2" opacity="0.5"/></g>
<text x="400" y="545" font-family="Arial, sans-serif" font-size="22" font-weight="600" fill="#f0f0f0" text-anchor="middle" letter-spacing="1">KALI LINUX · PENETRATION LAB</text>
</svg>