<svg xmlns="http://www.w3.org/2000/svg" width="800" height="1000" viewBox="0 0 800 1000">
<defs><linearGradient id="gb" x1="0" y1="0" x2="1" y2="1"><stop offset="0" stop-color="#161616"/><stop offset="1" stop-color="#0a0a0a"/></linearGradient></defs>
<rect width="800" height="1000" fill="url(#gb)"/>
<g transform="translate(400 210)"><circle r="80" fill="#1c1c1c" stroke="#333" stroke-width="2"/>
<path transform="translate(-56 -56) scale(4.6)" fill="#e8e8e8" d="M12 2C6.5 2 2 6.5 2 12c0 4.4 2.9 8.1 6.8 9.5.5.1.7-.2.7-.5v-1.7c-2.8.6-3.4-1.2-3.4-1.2-.4-1.1-1.1-1.4-1.1-1.4-.9-.6.1-.6.1-.6 1 .1 1.5 1 1.5 1 .9 1.5 2.3 1.1 2.9.8.1-.6.3-1.1.6-1.3-2.2-.2-4.6-1.1-4.6-4.9 0-1.1.4-2 1-2.7-.1-.3-.4-1.3.1-2.6 0 0 .8-.3 2.7 1a9.4 9.4 0 0 1 5 0c1.9-1.3 2.7-1 2.7-1 .5 1.3.2 2.3.1 2.6.6.7 1 1.6 1 2.7 0 3.8-2.3 4.7-4.6 4.9.4.3.7.9.7 1.9v2.8c0 .3.2.6.7.5 3.9-1.4 6.8-5.1 6.8-9.5C22 6.5 17.5 2 12 2z"/></g>
<text x="400" y="330" font-family="Arial" font-size="30" font-weight="700" fill="#fff" text-anchor="middle">NidaSu0</text>
<text x="400" y="365" font-family="Arial" font-size="17" fill="#888" text-anchor="middle">Cybersecurity · Python · Networking</text>
<g transform="translate(150 430)"><rect x="0" y="0" width="26" height="26" rx="5" fill="#1a1a1a"/><rect x="33" y="0" width="26" height="26" rx="5" fill="#1a1a1a"/><rect x="66" y="0" width="26" height="26" rx="5" fill="#006d32"/><rect x="99" y="0" width="26" height="26" rx="5" fill="#1a1a1a"/><rect x="132" y="0" width="26" height="26" rx="5" fill="#0e4429"/><rect x="165" y="0" width="26" height="26" rx="5" fill="#1a1a1a"/><rect x="198" y="0" width="26" height="26" rx="5" fill="#1a1a1a"/><rect x="231" y="0" width="26" height="26" rx="5" fill="#0e4429"/><rect x="264" y="0" width="26" height="26" rx="5" fill="#1a1a1a"/><rect x="297" y="0" width="26" height="26" rx="5" fill="#0e4429"/><rect x="330" y="0" width="26" height="26" rx="5" fill="#1a1a1a"/><rect x="363" y="0" width="26" height="26" rx="5" fill="#1a1a1a"/><rect x="396" y="0" width="26" height="26" rx="5" fill="#0e4429"/><rect x="429" y="0" width="26" height="26" rx="5" fill="#26a641"/><rect x="462" y="0" width="26" height="26" rx="5" fill="#1a1a1a"/><rect x="0" y="33" width="26" height="26" rx="5" fill="#1a1a1a"/><rect x="33" y="33" width="26" height="26" rx="5" fill="#006d32"/><rect x="66" y="33" width="26" height="26" rx="5" fill="#39d353"/><rect x="99" y="33" width="26" height="26" rx="5" fill="#0e4429"/><rect x="132" y="33" width="26" height="26" rx="5" fill="#1a1a1a"/><rect x="165" y="33" width="26" height="26" rx="5" fill="#39d353"/><rect x="198" y="33" width="26" height="26" rx="5" fill="#1a1a1a"/><rect x="231" y="33" width="26" height="26" rx="5" fill="#26a641"/><rect x="264" y="33" width="26" height="26" rx="5" fill="#1a1a1a"/><rect x="297" y="33" width="26" height="26" rx="5" fill="#1a1a1a"/><rect x="330" y="33" width="26" height="26" rx="5" fill="#1a1a1a"/><rect x="363" y="33" width="26" height="26" rx="5" fill="#1a1a1a"/><rect x="396" y="33" width="26" height="26" rx="5" fill="#26a641"/><rect x="429" y="33" width="26" height="26" rx="5" fill="#1a1a1a"/><rect x="462" y="33" width="26" height="26" rx="5" fill="#0e4429"/><rect x="0" y="66" width="26" height="26" rx="5" fill="#006d32"/><rect x="33" y="66" width="26" height="26" rx="5" fill="#1a1a1a"/><rect x="66" y="66" width="26" height="26" rx="5" fill="#0e4429"/><rect x="99" y="66" width="26" height="26" rx="5" fill="#1a1a1a"/><rect x="132" y="66" width="26" height="26" rx="5" fill="#1a1a1a"/><rect x="165" y="66" width="26" height="26" rx="5" fill="#1a1a1a"/><rect x="198" y="66" width="26" height="26" rx="5" fill="#006d32"/><rect x="231" y="66" width="26" height="26" rx="5" fill="#0e4429"/><rect x="264" y="66" width="26" height="26" rx="5" fill="#1a1a1a"/><rect x="297" y="66" width="26" height="26" rx="5" fill="#0e4429"/><rect x="330" y="66" width="26" height="26" rx="5" fill="#0e4429"/><rect x="363" y="66" width="26" height="26" rx="5" fill="#1a1a1a"/><rect x="396" y="66" width="26" height="26" rx="5" fill="#26a641"/><rect x="429" y="66" width="26" height="26" rx="5" fill="#006d32"/><rect x="462" y="66" width="26" height="26" rx="5" fill="#1a1a1a"/><rect x="0" y="99" width="26" height="26" rx="5" fill="#0e4429"/><rect x="33" y="99" width="26" height="26" rx="5" fill="#0e4429"/><rect x="66" y="99" width="26" height="26" rx="5" fill="#26a641"/><rect x="99" y="99" width="26" height="26" rx="5" fill="#006d32"/><rect x="132" y="99" width="26" height="26" rx="5" fill="#1a1a1a"/><rect x="165" y="99" width="26" height="26" rx="5" fill="#39d353"/><rect x="198" y="99" width="26" height="26" rx="5" fill="#1a1a1a"/><rect x="231" y="99" width="26" height="26" rx="5" fill="#1a1a1a"/><rect x="264" y="99" width="26" height="26" rx="5" fill="#006d32"/><rect x="297" y="99" width="26" height="26" rx="5" fill="#1a1a1a"/><rect x="330" y="99" width="26" height="26" rx="5" fill="#0e4429"/><rect x="363" y="99" width="26" height="26" rx="5" fill="#1a1a1a"/><rect x="396" y="99" width="26" height="26" rx="5" fill="#006d32"/><rect x="429" y="99" width="26" height="26" rx="5" fill="#26a641"/><rect x="462" y="99" width="26" height="26" rx="5" fill="#0e4429"/><rect x="0" y="132" width="26" height="26" rx="5" fill="#26a641"/><rect x="33" y="132" width="26" height="26" rx="5" fill="#1a1a1a"/><rect x="66" y="132" width="26" height="26" rx="5" fill="#006d32"/><rect x="99" y="132" width="26" height="26" rx="5" fill="#0e4429"/><rect x="132" y="132" width="26" height="26" rx="5" fill="#0e4429"/><rect x="165" y="132" width="26" height="26" rx="5" fill="#0e4429"/><rect x="198" y="132" width="26" height="26" rx="5" fill="#26a641"/><rect x="231" y="132" width="26" height="26" rx="5" fill="#39d353"/><rect x="264" y="132" width="26" height="26" rx="5" fill="#0e4429"/><rect x="297" y="132" width="26" height="26" rx="5" fill="#006d32"/><rect x="330" y="132" width="26" height="26" rx="5" fill="#1a1a1a"/><rect x="363" y="132" width="26" height="26" rx="5" fill="#006d32"/><rect x="396" y="132" width="26" height="26" rx="5" fill="#006d32"/><rect x="429" y="132" width="26" height="26" rx="5" fill="#39d353"/><rect x="462" y="132" width="26" height="26" rx="5" fill="#26a641"/><rect x="0" y="165" width="26" height="26" rx="5" fill="#1a1a1a"/><rect x="33" y="165" width="26" height="26" rx="5" fill="#1a1a1a"/><rect x="66" y="165" width="26" height="26" rx="5" fill="#006d32"/><rect x="99" y="165" width="26" height="26" rx="5" fill="#1a1a1a"/><rect x="132" y="165" width="26" height="26" rx="5" fill="#0e4429"/><rect x="165" y="165" width="26" height="26" rx="5" fill="#1a1a1a"/><rect x="198" y="165" width="26" height="26" rx="5" fill="#1a1a1a"/><rect x="231" y="165" width="26" height="26" rx="5" fill="#1a1a1a"/><rect x="264" y="165" width="26" height="26" rx="5" fill="#26a641"/><rect x="297" y="165" width="26" height="26" rx="5" fill="#1a1a1a"/><rect x="330" y="165" width="26" height="26" rx="5" fill="#1a1a1a"/><rect x="363" y="165" width="26" height="26" rx="5" fill="#1a1a1a"/><rect x="396" y="165" width="26" height="26" rx="5" fill="#26a641"/><rect x="429" y="165" width="26" height="26" rx="5" fill="#1a1a1a"/><rect x="462" y="165" width="26" height="26" rx="5" fill="#0e4429"/><rect x="0" y="198" width="26" height="26" rx="5" fill="#0e4429"/><rect x="33" y="198" width="26" height="26" rx="5" fill="#26a641"/><rect x="66" y="198" width="26" height="26" rx="5" fill="#26a641"/><rect x="99" y="198" width="26" height="26" rx="5" fill="#26a641"/><rect x="132" y="198" width="26" height="26" rx="5" fill="#1a1a1a"/><rect x="165" y="198" width="26" height="26" rx="5" fill="#1a1a1a"/><rect x="198" y="198" width="26" height="26" rx="5" fill="#1a1a1a"/><rect x="231" y="198" width="26" height="26" rx="5" fill="#26a641"/><rect x="264" y="198" width="26" height="26" rx="5" fill="#39d353"/><rect x="297" y="198" width="26" height="26" rx="5" fill="#1a1a1a"/><rect x="330" y="198" width="26" height="26" rx="5" fill="#1a1a1a"/><rect x="363" y="198" width="26" height="26" rx="5" fill="#1a1a1a"/><rect x="396" y="198" width="26" height="26" rx="5" fill="#1a1a1a"/><rect x="429" y="198" width="26" height="26" rx="5" fill="#0e4429"/><rect x="462" y="198" width="26" height="26" rx="5" fill="#0e4429"/></g>
<text x="150" y="700" font-family="monospace" font-size="16" fill="#888">Repositories</text>
<g font-family="monospace" font-size="15">
<rect x="150" y="720" width="500" height="70" rx="10" fill="#1c1c1c" stroke="#2a2a2a"/>
<text x="172" y="752" fill="#58a6ff">kali-pentest-lab</text><text x="172" y="775" fill="#666">Python · sızma testi otomasyonu</text>
<rect x="150" y="805" width="500" height="70" rx="10" fill="#1c1c1c" stroke="#2a2a2a"/>
<text x="172" y="837" fill="#58a6ff">redteam-simulation</text><text x="172" y="860" fill="#666">Red team operasyon senaryoları</text>
<rect x="150" y="890" width="500" height="70" rx="10" fill="#1c1c1c" stroke="#2a2a2a"/>
<text x="172" y="922" fill="#58a6ff">mobile-security</text><text x="172" y="945" fill="#666">Mobil güvenlik · bitirme projesi</text>
</g>
</svg>