<svg xmlns="http://www.w3.org/2000/svg" width="933" height="1200" viewBox="0 0 933 1200">
<defs><linearGradient id="rb" x1="0" y1="0" x2="1" y2="1"><stop offset="0" stop-color="#141414"/><stop offset="1" stop-color="#080808"/></linearGradient></defs>
<rect width="933" height="1200" fill="url(#rb)"/>
<rect x="110" y="110" width="713" height="980" rx="14" fill="#141414" stroke="#2a2a2a"/>
<g transform="translate(466 250)"><circle r="60" fill="none" stroke="#0099ff" stroke-width="3"/>
<path d="M-28 -18h56M-28 0h56M-28 18h40" stroke="#0099ff" stroke-width="4" stroke-linecap="round"/></g>
<text x="466" y="370" font-family="Arial, Helvetica, sans-serif" font-size="40" font-weight="800" fill="#fff" text-anchor="middle">Referans Mektubu</text>
<text x="466" y="415" font-family="Arial, Helvetica, sans-serif" font-size="22" fill="#0099ff" text-anchor="middle">İlgili Makama</text>
<g font-family="Arial, Helvetica, sans-serif" font-size="21" fill="#9a9a9a">
<text x="160" y="490">Nida Subaşı, öğrenimi süresince</text>
<text x="160" y="524">bilişim teknolojileri ve siber</text>
<text x="160" y="558">güvenlik alanında kapsamlı bir</text>
<text x="160" y="592">eğitim almış, başarılı bir</text>
<text x="160" y="626">öğrencidir. Analitik düşünme,</text>
<text x="160" y="660">problem çözme ve teknik</text>
<text x="160" y="694">araştırma konularında yetkinlik</text>
<text x="160" y="728">göstermiştir.</text>
</g>
<line x1="160" y1="820" x2="500" y2="820" stroke="#333"/>
<text x="160" y="870" font-family="Arial, Helvetica, sans-serif" font-size="22" fill="#ddd" font-weight="700">Öğr. Gör. Hatice ET</text>
<text x="160" y="902" font-family="Arial, Helvetica, sans-serif" font-size="18" fill="#777">Program Başkanı</text>
<text x="160" y="930" font-family="Arial, Helvetica, sans-serif" font-size="18" fill="#777">Bilişim Güvenliği Teknolojisi</text>
<text x="160" y="958" font-family="Arial, Helvetica, sans-serif" font-size="18" fill="#777">Kapadokya Üniversitesi</text>
<path d="M600 900q40 -30 80 0t80 -10" fill="none" stroke="#0099ff" stroke-width="2.5" opacity="0.7"/>
</svg>