<svg xmlns="http://www.w3.org/2000/svg" width="800" height="1000" viewBox="0 0 800 1000">
<defs><linearGradient id="cvb" x1="0" y1="0" x2="1" y2="1"><stop offset="0" stop-color="#0d1418"/><stop offset="1" stop-color="#060809"/></linearGradient>
<radialGradient id="cvg" cx="0.5" cy="0.4" r="0.6"><stop offset="0" stop-color="#0099ff" stop-opacity="0.15"/><stop offset="1" stop-color="#0099ff" stop-opacity="0"/></radialGradient></defs>
<rect width="800" height="1000" fill="url(#cvb)"/><rect width="800" height="1000" fill="url(#cvg)"/>
<g opacity="0.04" font-family="monospace" font-size="14" fill="#0099ff"><text x="243" y="636">01100110011100</text><text x="650" y="185">10000101111110</text><text x="374" y="129">010111</text><text x="431" y="549">110101010011</text><text x="127" y="94">1010100111000</text><text x="386" y="765">110010000011100</text><text x="347" y="351">01111011011</text><text x="264" y="563">1011010011</text><text x="361" y="725">11000111110</text><text x="372" y="219">11110001010</text><text x="335" y="221">1001101001011000</text><text x="542" y="225">01101011111</text><text x="649" y="456">1101000110</text><text x="33" y="793">1100100000100</text><text x="492" y="793">0100100</text><text x="349" y="158">1010000001</text><text x="131" y="873">110101</text><text x="632" y="569">10110000000100</text><text x="527" y="544">1010111111011</text><text x="126" y="160">01000111010111</text><text x="430" y="740">100010101001</text><text x="383" y="949">10101010010010</text><text x="539" y="124">010010001110000</text><text x="567" y="796">0100000</text><text x="465" y="660">111110101011</text><text x="159" y="688">000111001001</text><text x="237" y="901">11101011100101</text><text x="494" y="822">11010101</text><text x="751" y="933">100001</text><text x="247" y="941">100010010</text><text x="433" y="123">0011011</text><text x="594" y="781">1001111100110101</text><text x="78" y="711">011011111010</text><text x="682" y="535">10100011000111</text><text x="663" y="221">1100001101110</text><text x="139" y="73">1011110110010</text><text x="697" y="145">000110010000111</text><text x="30" y="892">1111111000001</text><text x="177" y="566">1000010100100010</text><text x="518" y="109">0111100001000</text></g>
<g transform="translate(400 380)">
<path d="M0 -95L82 -55V45C82 110 44 150 0 168C-44 150 -82 110 -82 45V-55Z" fill="#0d1a22" stroke="#0099ff" stroke-width="3"/>
<path d="M-30 5l22 24 42 -50" fill="none" stroke="#7fe0ff" stroke-width="6" stroke-linecap="round" stroke-linejoin="round"/></g>
<text x="400" y="640" font-family="Arial" font-size="44" font-weight="800" fill="#fff" text-anchor="middle" letter-spacing="1">Nida Subaşı</text>
<text x="400" y="690" font-family="Arial" font-size="20" fill="#7fe0ff" text-anchor="middle" letter-spacing="3">CYBER SECURITY</text>
<line x1="300" y1="720" x2="500" y2="720" stroke="#0099ff" stroke-width="1" opacity="0.4"/>
<text x="400" y="760" font-family="Arial" font-size="16" fill="#8aa" text-anchor="middle">Pentest · Red Team · Python · Networking</text>
</svg>