<svg xmlns="http://www.w3.org/2000/svg" width="800" height="1000" viewBox="0 0 800 1000">
<defs><linearGradient id="lb" x1="0" y1="0" x2="1" y2="1"><stop offset="0" stop-color="#0a1520"/><stop offset="1" stop-color="#060a10"/></linearGradient></defs>
<rect width="800" height="1000" fill="url(#lb)"/>
<rect x="0" y="0" width="800" height="230" fill="#0a2540" opacity="0.5"/>
<g transform="translate(400 230)"><circle r="90" fill="#0d0d0d" stroke="#0a66c2" stroke-width="4"/>
<text y="30" font-family="Georgia" font-size="80" font-weight="700" fill="#0a66c2" text-anchor="middle">NS</text></g>
<text x="400" y="380" font-family="Arial" font-size="32" font-weight="700" fill="#fff" text-anchor="middle">Nida Subaşı</text>
<text x="400" y="418" font-family="Arial" font-size="18" fill="#9ac2e6" text-anchor="middle">Bilişim Güvenliği Teknolojisi</text>
<text x="400" y="446" font-family="Arial" font-size="15" fill="#6a8faa" text-anchor="middle">Kapadokya Üniversitesi · Nevşehir</text>
<g transform="translate(150 500)">
<rect x="0" y="30" width="60" height="60" rx="12" fill="#0a66c2"/>
<path d="M18 52h8v22h-8zM22 40a5 5 0 1 1 0 10 5 5 0 0 1 0-10M32 74V52h8v3c2-3 5-4 8-4 7 0 8 4 8 10v13h-8V63c0-3-1-5-4-5s-4 2-4 5v11z" fill="#fff"/>
<text x="80" y="55" font-family="Arial" font-size="19" fill="#fff" font-weight="600">linkedin.com/in/nida-subasi</text>
<text x="80" y="80" font-family="Arial" font-size="15" fill="#6a8faa">Siber güvenlik · ağ savunması · Python</text>
</g>
<g font-family="Arial" font-size="16" fill="#cfe0ee">
<text x="150" y="650" font-size="18" fill="#9ac2e6" font-weight="600">Öne Çıkan Yetkinlikler</text>
<g fill="#0a2540" font-size="15">
<rect x="150" y="675" width="200" height="42" rx="21" fill="#12324f"/><text x="250" y="702" fill="#cfe0ee" text-anchor="middle">Red Team Ops</text>
<rect x="365" y="675" width="180" height="42" rx="21" fill="#12324f"/><text x="455" y="702" fill="#cfe0ee" text-anchor="middle">Pentest</text>
<rect x="150" y="730" width="160" height="42" rx="21" fill="#12324f"/><text x="230" y="757" fill="#cfe0ee" text-anchor="middle">Python</text>
<rect x="325" y="730" width="220" height="42" rx="21" fill="#12324f"/><text x="435" y="757" fill="#cfe0ee" text-anchor="middle">Ağ Güvenliği</text>
<rect x="150" y="785" width="240" height="42" rx="21" fill="#12324f"/><text x="270" y="812" fill="#cfe0ee" text-anchor="middle">Kriptoloji</text>
<rect x="405" y="785" width="140" height="42" rx="21" fill="#12324f"/><text x="475" y="812" fill="#cfe0ee" text-anchor="middle">SDLC</text>
</g></g>
<text x="400" y="920" font-family="Arial" font-size="14" fill="#4a6a84" text-anchor="middle" letter-spacing="2">PROFESSIONAL PROFILE</text>
</svg>