<svg xmlns="http://www.w3.org/2000/svg" viewBox="0 0 860 1520" preserveAspectRatio="xMidYMid slice"><defs>
  <radialGradient id="bgGlow" cx="50%" cy="30%" r="75%">
    <stop offset="0%" stop-color="#1b2530"/>
    <stop offset="55%" stop-color="#0c1015"/>
    <stop offset="100%" stop-color="#050608"/>
  </radialGradient>
  <linearGradient id="panelFill" x1="0" y1="0" x2="0" y2="1">
    <stop offset="0%" stop-color="#20242b"/>
    <stop offset="100%" stop-color="#14171c"/>
  </linearGradient>
  <linearGradient id="rackFill" x1="0" y1="0" x2="0" y2="1">
    <stop offset="0%" stop-color="#262b33"/>
    <stop offset="100%" stop-color="#15181d"/>
  </linearGradient>
  <linearGradient id="platformFill" x1="0" y1="0" x2="1" y2="1">
    <stop offset="0%" stop-color="#22262d"/>
    <stop offset="100%" stop-color="#0f1216"/>
  </linearGradient>
  <filter id="glow" x="-80%" y="-80%" width="260%" height="260%">
    <feGaussianBlur stdDeviation="6" result="b"/>
    <feMerge><feMergeNode in="b"/><feMergeNode in="SourceGraphic"/></feMerge>
  </filter>
  <filter id="softBlur" x="-50%" y="-50%" width="200%" height="200%">
    <feGaussianBlur stdDeviation="30"/>
  </filter>
  <pattern id="grid" width="40" height="40" patternUnits="userSpaceOnUse">
    <path d="M40 0H0V40" fill="none" stroke="#ffffff" stroke-opacity="0.03" stroke-width="1"/>
  </pattern>
</defs><rect width="860" height="1520" fill="url(#bgGlow)"/><rect width="860" height="1520" fill="url(#grid)"/><path d="M-100,300 C150,220 250,420 480,340 C700,270 780,120 960,200" stroke="#ffffff" stroke-opacity="0.05" stroke-width="90" fill="none" filter="url(#softBlur)"/><path d="M-100,1150 C120,1250 300,1050 520,1150 C720,1240 760,1350 960,1260" stroke="#ffffff" stroke-opacity="0.045" stroke-width="100" fill="none" filter="url(#softBlur)"/><g transform="translate(60,50)"><rect x="0" y="0" width="740" height="300" rx="14" fill="url(#panelFill)" stroke="#ffffff" stroke-opacity="0.09"/><circle cx="22" cy="22" r="5" fill="#ff5f57" opacity="0.7"/><circle cx="40" cy="22" r="5" fill="#febc2e" opacity="0.7"/><circle cx="58" cy="22" r="5" fill="#28c840" opacity="0.7"/><text x="22" y="48" fill="#ffffff" fill-opacity="0.55" font-family="Arial,sans-serif" font-size="13">System Dashboard</text><line x1="18" y1="60" x2="722" y2="60" stroke="#ffffff" stroke-opacity="0.08"/></g><polyline points="96.0,193.5 138.5,182.3 181.0,144.4 223.5,192.1 266.0,187.7 308.5,179.4 351.0,221.3 393.5,187.3 436.0,175.0" fill="none" stroke="#3aaaff" stroke-width="2.5" opacity="0.9"/><polygon points="96.0,193.5 138.5,182.3 181.0,144.4 223.5,192.1 266.0,187.7 308.5,179.4 351.0,221.3 393.5,187.3 436.0,175.0 436.0,260.0 96.0,260.0" fill="#3aaaff" opacity="0.13"/><circle cx="96.0" cy="193.5" r="3" fill="#3aaaff"/><circle cx="138.5" cy="182.3" r="3" fill="#3aaaff"/><circle cx="181.0" cy="144.4" r="3" fill="#3aaaff"/><circle cx="223.5" cy="192.1" r="3" fill="#3aaaff"/><circle cx="266.0" cy="187.7" r="3" fill="#3aaaff"/><circle cx="308.5" cy="179.4" r="3" fill="#3aaaff"/><circle cx="351.0" cy="221.3" r="3" fill="#3aaaff"/><circle cx="393.5" cy="187.3" r="3" fill="#3aaaff"/><circle cx="436.0" cy="175.0" r="3" fill="#3aaaff"/><rect x="96.0" y="301.7" width="21.2" height="33.3" rx="2" fill="#3aaaff" opacity="0.65"/><rect x="130.0" y="294.1" width="21.2" height="40.9" rx="2" fill="#3aaaff" opacity="0.72"/><rect x="164.0" y="293.8" width="21.2" height="41.2" rx="2" fill="#3aaaff" opacity="0.72"/><rect x="198.0" y="315.4" width="21.2" height="19.6" rx="2" fill="#3aaaff" opacity="0.53"/><rect x="232.0" y="320.8" width="21.2" height="14.2" rx="2" fill="#3aaaff" opacity="0.48"/><rect x="266.0" y="305.8" width="21.2" height="29.2" rx="2" fill="#3aaaff" opacity="0.62"/><rect x="300.0" y="309.9" width="21.2" height="25.1" rx="2" fill="#3aaaff" opacity="0.58"/><rect x="334.0" y="287.8" width="21.2" height="47.2" rx="2" fill="#3aaaff" opacity="0.78"/><rect x="368.0" y="292.8" width="21.2" height="42.2" rx="2" fill="#3aaaff" opacity="0.73"/><rect x="402.0" y="296.4" width="21.2" height="38.6" rx="2" fill="#3aaaff" opacity="0.70"/><circle cx="650" cy="205" r="62" fill="none" stroke="#ffffff" stroke-opacity="0.08" stroke-width="8" stroke-dasharray="292.16811678385073 97.38937226128358" transform="rotate(135 650 205)" stroke-linecap="round"/><circle cx="650" cy="205" r="62" fill="none" stroke="#3aaaff" stroke-width="8" stroke-dasharray="213.28272525221104 389.55748904513433" transform="rotate(135 650 205)" stroke-linecap="round" opacity="0.9"/><text x="650" y="211" text-anchor="middle" fill="#ffffff" font-family="Arial,sans-serif" font-size="20" font-weight="bold" opacity="0.9">73%</text><text x="470" y="145" fill="#ffffff" fill-opacity="0.3" font-family="Arial,sans-serif" font-size="11">Ağ Trafiği</text><text x="470" y="290" fill="#ffffff" fill-opacity="0.3" font-family="Arial,sans-serif" font-size="11">İstek Yoğunluğu</text><path d="M430,400 C430,470 430,520 430,560" stroke="#3aaaff" stroke-opacity="0.5" stroke-width="2.5" fill="none" stroke-dasharray="1 10" stroke-linecap="round"/><rect x="365.8" y="500.3" width="7.8" height="7.8" rx="1.5" fill="#8fd0ff" opacity="0.49"/><rect x="374.5" y="518.3" width="8.8" height="8.8" rx="1.5" fill="#8fd0ff" opacity="0.51"/><rect x="428.9" y="420.5" width="4.0" height="4.0" rx="1.5" fill="#8fd0ff" opacity="0.41"/><rect x="441.0" y="388.1" width="8.8" height="8.8" rx="1.5" fill="#8fd0ff" opacity="0.31"/><rect x="376.9" y="382.6" width="10.0" height="10.0" rx="1.5" fill="#8fd0ff" opacity="0.67"/><rect x="495.4" y="488.8" width="4.2" height="4.2" rx="1.5" fill="#8fd0ff" opacity="0.38"/><rect x="424.7" y="396.0" width="9.7" height="9.7" rx="1.5" fill="#8fd0ff" opacity="0.41"/><rect x="365.5" y="524.8" width="4.7" height="4.7" rx="1.5" fill="#8fd0ff" opacity="0.80"/><rect x="418.5" y="476.3" width="6.1" height="6.1" rx="1.5" fill="#8fd0ff" opacity="0.49"/><rect x="369.0" y="382.1" width="9.2" height="9.2" rx="1.5" fill="#8fd0ff" opacity="0.31"/><rect x="475.5" y="412.6" width="9.8" height="9.8" rx="1.5" fill="#8fd0ff" opacity="0.78"/><rect x="472.1" y="513.6" width="7.5" height="7.5" rx="1.5" fill="#8fd0ff" opacity="0.66"/><rect x="357.6" y="461.3" width="9.0" height="9.0" rx="1.5" fill="#8fd0ff" opacity="0.29"/><rect x="502.9" y="536.5" width="6.5" height="6.5" rx="1.5" fill="#8fd0ff" opacity="0.41"/><rect x="416.3" y="444.5" width="10.0" height="10.0" rx="1.5" fill="#8fd0ff" opacity="0.42"/><rect x="340.7" y="392.6" width="8.3" height="8.3" rx="1.5" fill="#8fd0ff" opacity="0.84"/><g filter="url(#glow)"><polygon points="430,600 730,740 430,900 130,740" fill="url(#platformFill)" stroke="#3aaaff" stroke-opacity="0.35" stroke-width="2"/></g><line x1="430" y1="700" x2="280" y2="720" stroke="#ffffff" stroke-opacity="0.22" stroke-width="1.5"/><line x1="430" y1="700" x2="580" y2="720" stroke="#ffffff" stroke-opacity="0.22" stroke-width="1.5"/><line x1="430" y1="700" x2="360" y2="800" stroke="#ffffff" stroke-opacity="0.22" stroke-width="1.5"/><line x1="430" y1="700" x2="520" y2="815" stroke="#ffffff" stroke-opacity="0.22" stroke-width="1.5"/><line x1="280" y1="720" x2="360" y2="800" stroke="#ffffff" stroke-opacity="0.22" stroke-width="1.5"/><line x1="580" y1="720" x2="520" y2="815" stroke="#ffffff" stroke-opacity="0.22" stroke-width="1.5"/><g transform="translate(414,654)"><rect width="32" height="60" rx="4" fill="url(#rackFill)" stroke="#3aaaff" stroke-opacity="0.5"/><circle cx="16" cy="10" r="2.2" fill="#3aaaff" opacity="0.8"/><circle cx="16" cy="24" r="2.2" fill="#3aaaff" opacity="0.8"/><circle cx="16" cy="38" r="2.2" fill="#3aaaff" opacity="0.8"/><circle cx="16" cy="52" r="2.2" fill="#3aaaff" opacity="0.8"/></g><g transform="translate(258,706)"><rect width="44" height="28" rx="5" fill="url(#rackFill)" stroke="#ffffff" stroke-opacity="0.18"/><circle cx="8" cy="14" r="2" fill="#3aaaff" opacity="0.7"/><circle cx="17" cy="14" r="2" fill="#3aaaff" opacity="0.7"/><circle cx="26" cy="14" r="2" fill="#3aaaff" opacity="0.7"/><circle cx="35" cy="14" r="2" fill="#3aaaff" opacity="0.7"/></g><g transform="translate(556,702)" fill="none" stroke="#ffffff" stroke-opacity="0.5" stroke-width="2"><path d="M8,20 a10,10 0 0,1 0,-20 a13,13 0 0,1 25,-4 a10,10 0 0,1 3,20 z"/></g><circle cx="360" cy="800" r="14" fill="url(#rackFill)" stroke="#3aaaff" stroke-opacity="0.6" stroke-width="2"/><circle cx="360" cy="800" r="4" fill="#3aaaff"/><rect x="505" y="804" width="30" height="22" rx="4" fill="url(#rackFill)" stroke="#ffffff" stroke-opacity="0.2"/><path d="M270,850 C210,940 170,990 130,1060" stroke="#3aaaff" stroke-opacity="0.55" stroke-width="2.5" fill="none"/><path d="M590,850 C660,950 700,1000 730,1070" stroke="#3aaaff" stroke-opacity="0.55" stroke-width="2.5" fill="none"/><polygon points="130,1060 138,1044 148,1060" fill="#3aaaff" opacity="0.8"/><polygon points="730,1070 722,1054 738,1060" fill="#3aaaff" opacity="0.8"/><g transform="translate(50,1120)"><rect x="0" y="0" width="340" height="300" rx="14" fill="url(#panelFill)" stroke="#ffffff" stroke-opacity="0.09"/><circle cx="22" cy="22" r="5" fill="#ff5f57" opacity="0.7"/><circle cx="40" cy="22" r="5" fill="#febc2e" opacity="0.7"/><circle cx="58" cy="22" r="5" fill="#28c840" opacity="0.7"/><text x="22" y="48" fill="#ffffff" fill-opacity="0.55" font-family="Arial,sans-serif" font-size="13">Performans Metrikleri</text><line x1="18" y1="60" x2="322" y2="60" stroke="#ffffff" stroke-opacity="0.08"/></g><circle cx="160" cy="1230" r="55" fill="none" stroke="#ffffff" stroke-opacity="0.08" stroke-width="8" stroke-dasharray="259.18139392115796 86.39379797371932" transform="rotate(135 160 1230)" stroke-linecap="round"/><circle cx="160" cy="1230" r="55" fill="none" stroke="#3aaaff" stroke-width="8" stroke-dasharray="225.48781271140743 345.57519189487726" transform="rotate(135 160 1230)" stroke-linecap="round" opacity="0.9"/><text x="160" y="1236" text-anchor="middle" fill="#ffffff" font-family="Arial,sans-serif" font-size="20" font-weight="bold" opacity="0.9">%87</text><text x="90" y="1310" fill="#ffffff" fill-opacity="0.35" font-family="Arial,sans-serif" font-size="10">Sistem Sağlığı</text><rect x="320.0" y="1274.1" width="5.7" height="25.9" rx="2" fill="#3aaaff" opacity="0.48"/><rect x="329.2" y="1266.6" width="5.7" height="33.4" rx="2" fill="#3aaaff" opacity="0.52"/><rect x="338.3" y="1245.5" width="5.7" height="54.5" rx="2" fill="#3aaaff" opacity="0.62"/><rect x="347.5" y="1223.7" width="5.7" height="76.3" rx="2" fill="#3aaaff" opacity="0.73"/><rect x="356.7" y="1264.6" width="5.7" height="35.4" rx="2" fill="#3aaaff" opacity="0.53"/><rect x="365.8" y="1266.6" width="5.7" height="33.4" rx="2" fill="#3aaaff" opacity="0.52"/><text x="315" y="1330" fill="#ffffff" fill-opacity="0.3" font-family="Arial,sans-serif" font-size="10">Yük</text><g transform="translate(480,1130)"><rect x="0" y="0" width="66" height="260" rx="6" fill="url(#rackFill)" stroke="#ffffff" stroke-opacity="0.1"/><rect x="8" y="10" width="50" height="22" rx="4" fill="none" stroke="#ffffff" stroke-opacity="0.1"/><circle cx="18" cy="21" r="3.2" fill="#ffffff" opacity="0.28"/><rect x="30" y="17" width="16" height="4" rx="2" fill="#ffffff" opacity="0.14"/><rect x="8" y="44" width="50" height="22" rx="4" fill="none" stroke="#ffffff" stroke-opacity="0.1"/><circle cx="18" cy="55" r="3.2" fill="#ffffff" opacity="0.19"/><rect x="30" y="51" width="16" height="4" rx="2" fill="#ffffff" opacity="0.14"/><rect x="8" y="78" width="50" height="22" rx="4" fill="none" stroke="#ffffff" stroke-opacity="0.1"/><circle cx="18" cy="89" r="3.2" fill="#28c840" opacity="0.80"/><rect x="30" y="85" width="16" height="4" rx="2" fill="#ffffff" opacity="0.14"/><rect x="8" y="112" width="50" height="22" rx="4" fill="none" stroke="#ffffff" stroke-opacity="0.1"/><circle cx="18" cy="123" r="3.2" fill="#ffffff" opacity="0.20"/><rect x="30" y="119" width="16" height="4" rx="2" fill="#ffffff" opacity="0.14"/><rect x="8" y="146" width="50" height="22" rx="4" fill="none" stroke="#ffffff" stroke-opacity="0.1"/><circle cx="18" cy="157" r="3.2" fill="#28c840" opacity="0.70"/><rect x="30" y="153" width="16" height="4" rx="2" fill="#ffffff" opacity="0.14"/><rect x="8" y="180" width="50" height="22" rx="4" fill="none" stroke="#ffffff" stroke-opacity="0.1"/><circle cx="18" cy="191" r="3.2" fill="#ffffff" opacity="0.28"/><rect x="30" y="187" width="16" height="4" rx="2" fill="#ffffff" opacity="0.14"/><rect x="8" y="214" width="50" height="22" rx="4" fill="none" stroke="#ffffff" stroke-opacity="0.1"/><circle cx="18" cy="225" r="3.2" fill="#ffffff" opacity="0.25"/><rect x="30" y="221" width="16" height="4" rx="2" fill="#ffffff" opacity="0.14"/></g><g transform="translate(560,1090)"><rect x="0" y="0" width="66" height="300" rx="6" fill="url(#rackFill)" stroke="#ffffff" stroke-opacity="0.1"/><rect x="8" y="10" width="50" height="22" rx="4" fill="none" stroke="#ffffff" stroke-opacity="0.1"/><circle cx="18" cy="21" r="3.2" fill="#ffffff" opacity="0.18"/><rect x="30" y="17" width="16" height="4" rx="2" fill="#ffffff" opacity="0.14"/><rect x="8" y="44" width="50" height="22" rx="4" fill="none" stroke="#ffffff" stroke-opacity="0.1"/><circle cx="18" cy="55" r="3.2" fill="#ffffff" opacity="0.29"/><rect x="30" y="51" width="16" height="4" rx="2" fill="#ffffff" opacity="0.14"/><rect x="8" y="78" width="50" height="22" rx="4" fill="none" stroke="#ffffff" stroke-opacity="0.1"/><circle cx="18" cy="89" r="3.2" fill="#3aaaff" opacity="0.81"/><rect x="30" y="85" width="16" height="4" rx="2" fill="#ffffff" opacity="0.14"/><rect x="8" y="112" width="50" height="22" rx="4" fill="none" stroke="#ffffff" stroke-opacity="0.1"/><circle cx="18" cy="123" r="3.2" fill="#3aaaff" opacity="0.67"/><rect x="30" y="119" width="16" height="4" rx="2" fill="#ffffff" opacity="0.14"/><rect x="8" y="146" width="50" height="22" rx="4" fill="none" stroke="#ffffff" stroke-opacity="0.1"/><circle cx="18" cy="157" r="3.2" fill="#3aaaff" opacity="0.76"/><rect x="30" y="153" width="16" height="4" rx="2" fill="#ffffff" opacity="0.14"/><rect x="8" y="180" width="50" height="22" rx="4" fill="none" stroke="#ffffff" stroke-opacity="0.1"/><circle cx="18" cy="191" r="3.2" fill="#3aaaff" opacity="0.80"/><rect x="30" y="187" width="16" height="4" rx="2" fill="#ffffff" opacity="0.14"/><rect x="8" y="214" width="50" height="22" rx="4" fill="none" stroke="#ffffff" stroke-opacity="0.1"/><circle cx="18" cy="225" r="3.2" fill="#3aaaff" opacity="0.70"/><rect x="30" y="221" width="16" height="4" rx="2" fill="#ffffff" opacity="0.14"/><rect x="8" y="248" width="50" height="22" rx="4" fill="none" stroke="#ffffff" stroke-opacity="0.1"/><circle cx="18" cy="259" r="3.2" fill="#ffffff" opacity="0.17"/><rect x="30" y="255" width="16" height="4" rx="2" fill="#ffffff" opacity="0.14"/></g><g transform="translate(640,1120)"><rect x="0" y="0" width="66" height="270" rx="6" fill="url(#rackFill)" stroke="#ffffff" stroke-opacity="0.1"/><rect x="8" y="10" width="50" height="22" rx="4" fill="none" stroke="#ffffff" stroke-opacity="0.1"/><circle cx="18" cy="21" r="3.2" fill="#28c840" opacity="0.51"/><rect x="30" y="17" width="16" height="4" rx="2" fill="#ffffff" opacity="0.14"/><rect x="8" y="44" width="50" height="22" rx="4" fill="none" stroke="#ffffff" stroke-opacity="0.1"/><circle cx="18" cy="55" r="3.2" fill="#ffffff" opacity="0.18"/><rect x="30" y="51" width="16" height="4" rx="2" fill="#ffffff" opacity="0.14"/><rect x="8" y="78" width="50" height="22" rx="4" fill="none" stroke="#ffffff" stroke-opacity="0.1"/><circle cx="18" cy="89" r="3.2" fill="#28c840" opacity="0.80"/><rect x="30" y="85" width="16" height="4" rx="2" fill="#ffffff" opacity="0.14"/><rect x="8" y="112" width="50" height="22" rx="4" fill="none" stroke="#ffffff" stroke-opacity="0.1"/><circle cx="18" cy="123" r="3.2" fill="#28c840" opacity="0.54"/><rect x="30" y="119" width="16" height="4" rx="2" fill="#ffffff" opacity="0.14"/><rect x="8" y="146" width="50" height="22" rx="4" fill="none" stroke="#ffffff" stroke-opacity="0.1"/><circle cx="18" cy="157" r="3.2" fill="#ffffff" opacity="0.15"/><rect x="30" y="153" width="16" height="4" rx="2" fill="#ffffff" opacity="0.14"/><rect x="8" y="180" width="50" height="22" rx="4" fill="none" stroke="#ffffff" stroke-opacity="0.1"/><circle cx="18" cy="191" r="3.2" fill="#ffffff" opacity="0.23"/><rect x="30" y="187" width="16" height="4" rx="2" fill="#ffffff" opacity="0.14"/><rect x="8" y="214" width="50" height="22" rx="4" fill="none" stroke="#ffffff" stroke-opacity="0.1"/><circle cx="18" cy="225" r="3.2" fill="#ffffff" opacity="0.18"/><rect x="30" y="221" width="16" height="4" rx="2" fill="#ffffff" opacity="0.14"/></g><g transform="translate(720,1080)"><rect x="0" y="0" width="66" height="310" rx="6" fill="url(#rackFill)" stroke="#ffffff" stroke-opacity="0.1"/><rect x="8" y="10" width="50" height="22" rx="4" fill="none" stroke="#ffffff" stroke-opacity="0.1"/><circle cx="18" cy="21" r="3.2" fill="#ffffff" opacity="0.25"/><rect x="30" y="17" width="16" height="4" rx="2" fill="#ffffff" opacity="0.14"/><rect x="8" y="44" width="50" height="22" rx="4" fill="none" stroke="#ffffff" stroke-opacity="0.1"/><circle cx="18" cy="55" r="3.2" fill="#ffffff" opacity="0.22"/><rect x="30" y="51" width="16" height="4" rx="2" fill="#ffffff" opacity="0.14"/><rect x="8" y="78" width="50" height="22" rx="4" fill="none" stroke="#ffffff" stroke-opacity="0.1"/><circle cx="18" cy="89" r="3.2" fill="#febc2e" opacity="0.86"/><rect x="30" y="85" width="16" height="4" rx="2" fill="#ffffff" opacity="0.14"/><rect x="8" y="112" width="50" height="22" rx="4" fill="none" stroke="#ffffff" stroke-opacity="0.1"/><circle cx="18" cy="123" r="3.2" fill="#ffffff" opacity="0.22"/><rect x="30" y="119" width="16" height="4" rx="2" fill="#ffffff" opacity="0.14"/><rect x="8" y="146" width="50" height="22" rx="4" fill="none" stroke="#ffffff" stroke-opacity="0.1"/><circle cx="18" cy="157" r="3.2" fill="#ffffff" opacity="0.21"/><rect x="30" y="153" width="16" height="4" rx="2" fill="#ffffff" opacity="0.14"/><rect x="8" y="180" width="50" height="22" rx="4" fill="none" stroke="#ffffff" stroke-opacity="0.1"/><circle cx="18" cy="191" r="3.2" fill="#ffffff" opacity="0.28"/><rect x="30" y="187" width="16" height="4" rx="2" fill="#ffffff" opacity="0.14"/><rect x="8" y="214" width="50" height="22" rx="4" fill="none" stroke="#ffffff" stroke-opacity="0.1"/><circle cx="18" cy="225" r="3.2" fill="#ffffff" opacity="0.26"/><rect x="30" y="221" width="16" height="4" rx="2" fill="#ffffff" opacity="0.14"/><rect x="8" y="248" width="50" height="22" rx="4" fill="none" stroke="#ffffff" stroke-opacity="0.1"/><circle cx="18" cy="259" r="3.2" fill="#ffffff" opacity="0.18"/><rect x="30" y="255" width="16" height="4" rx="2" fill="#ffffff" opacity="0.14"/><rect x="8" y="282" width="50" height="22" rx="4" fill="none" stroke="#ffffff" stroke-opacity="0.1"/><circle cx="18" cy="293" r="3.2" fill="#febc2e" opacity="0.87"/><rect x="30" y="289" width="16" height="4" rx="2" fill="#ffffff" opacity="0.14"/></g><g transform="translate(470,1350)"><rect x="0" y="0" width="340" height="130" rx="14" fill="url(#panelFill)" stroke="#ffffff" stroke-opacity="0.09"/><circle cx="22" cy="22" r="5" fill="#ff5f57" opacity="0.7"/><circle cx="40" cy="22" r="5" fill="#febc2e" opacity="0.7"/><circle cx="58" cy="22" r="5" fill="#28c840" opacity="0.7"/><text x="22" y="48" fill="#ffffff" fill-opacity="0.55" font-family="Arial,sans-serif" font-size="13">Sunucu Durumu</text><line x1="18" y1="60" x2="322" y2="60" stroke="#ffffff" stroke-opacity="0.08"/></g><text x="500" y="1420" fill="#ffffff" font-family="Arial,sans-serif" font-size="22" font-weight="bold" opacity="0.9">%99.9</text><text x="500" y="1440" fill="#ffffff" fill-opacity="0.35" font-family="Arial,sans-serif" font-size="10">Çalışma Süresi</text><circle cx="730" cy="1410" r="32" fill="none" stroke="#ffffff" stroke-opacity="0.08" stroke-width="8" stroke-dasharray="150.79644737231007 50.26548245743669" transform="rotate(135 730 1410)" stroke-linecap="round"/><circle cx="730" cy="1410" r="32" fill="none" stroke="#3aaaff" stroke-width="8" stroke-dasharray="141.74866052997146 201.06192982974676" transform="rotate(135 730 1410)" stroke-linecap="round" opacity="0.9"/><text x="730" y="1416" text-anchor="middle" fill="#ffffff" font-family="Arial,sans-serif" font-size="20" font-weight="bold" opacity="0.9"></text></svg>