<svg xmlns="http://www.w3.org/2000/svg" width="1000" height="1000" viewBox="0 0 1000 1000"><rect width="1000" height="1000" fill="none"/><g opacity="0.35" stroke="#0099ff" stroke-width="2" fill="none">
<path d="M150 130h55M150 130v55"/><path d="M850 130h-55M850 130v55"/>
<path d="M150 870h55M150 870v-55"/><path d="M850 870h-55M850 870v-55"/></g><g opacity="0.06" font-family="monospace" font-size="26" fill="#0099ff"><text x="393" y="757">1100110</text><text x="346" y="681">1100010000</text><text x="458" y="231">11111010</text><text x="186" y="339">011111110</text><text x="494" y="229">01001100</text><text x="643" y="695">101001</text><text x="587" y="625">001110</text><text x="186" y="517">000011</text><text x="775" y="469">0111011</text><text x="621" y="732">011011111</text><text x="161" y="625">1010011111</text><text x="651" y="222">0011111010</text><text x="470" y="578">1110001010</text><text x="485" y="391">10011010010</text><text x="732" y="661">00001011</text><text x="237" y="553">0111111111</text><text x="186" y="623">0011001</text><text x="681" y="495">1001000001</text></g>
<text x="500" y="245" font-family="Arial, Helvetica, sans-serif" font-size="26" fill="#0099ff" text-anchor="middle" letter-spacing="6" font-weight="700">PROFİL</text>
<g transform="translate(500 400)"><path d="M0 -115L94 -63V54C94 127 51 171 0 192C-51 171 -94 127 -94 54V-63Z" fill="none" stroke="#0099ff" stroke-width="3.5"/>
<path d="M-36 6l29 31 54 -64" fill="none" stroke="#7fe0ff" stroke-width="8" stroke-linecap="round" stroke-linejoin="round"/></g>
<text x="500" y="655" font-family="Arial, Helvetica, sans-serif" font-size="58" font-weight="800" fill="#fff" text-anchor="middle">Nida Subaşı</text>
<text x="500" y="702" font-family="Arial, Helvetica, sans-serif" font-size="26" fill="#7fe0ff" text-anchor="middle" letter-spacing="5">CYBER SECURITY</text>
<text x="500" y="748" font-family="Arial, Helvetica, sans-serif" font-size="23" fill="#8aa" text-anchor="middle">Pentest · Red Team · Python</text></svg>