<svg xmlns="http://www.w3.org/2000/svg" width="1000" height="1000" viewBox="0 0 1000 1000"><rect width="1000" height="1000" fill="none"/><g opacity="0.35" stroke="#58a6ff" stroke-width="2" fill="none">
<path d="M150 130h55M150 130v55"/><path d="M850 130h-55M850 130v55"/>
<path d="M150 870h55M150 870v-55"/><path d="M850 870h-55M850 870v-55"/></g><text x="500" y="230" font-family="Arial, Helvetica, sans-serif" font-size="26" fill="#58a6ff" text-anchor="middle" letter-spacing="6" font-weight="700">GITHUB</text>
<g transform="translate(500 330)"><circle r="66" fill="#141414" stroke="#3a3a3a" stroke-width="2"/>
<path transform="translate(-46 -46) scale(3.85)" fill="#e8e8e8" d="M12 2C6.5 2 2 6.5 2 12c0 4.4 2.9 8.1 6.8 9.5.5.1.7-.2.7-.5v-1.7c-2.8.6-3.4-1.2-3.4-1.2-.4-1.1-1.1-1.4-1.1-1.4-.9-.6.1-.6.1-.6 1 .1 1.5 1 1.5 1 .9 1.5 2.3 1.1 2.9.8.1-.6.3-1.1.6-1.3-2.2-.2-4.6-1.1-4.6-4.9 0-1.1.4-2 1-2.7-.1-.3-.4-1.3.1-2.6 0 0 .8-.3 2.7 1a9.4 9.4 0 0 1 5 0c1.9-1.3 2.7-1 2.7-1 .5 1.3.2 2.3.1 2.6.6.7 1 1.6 1 2.7 0 3.8-2.3 4.7-4.6 4.9.4.3.7.9.7 1.9v2.8c0 .3.2.6.7.5 3.9-1.4 6.8-5.1 6.8-9.5C22 6.5 17.5 2 12 2z"/></g>
<text x="500" y="460" font-family="Arial, Helvetica, sans-serif" font-size="44" font-weight="800" fill="#fff" text-anchor="middle">NidaSu0</text>
<text x="500" y="500" font-family="Arial, Helvetica, sans-serif" font-size="24" fill="#888" text-anchor="middle">Cybersecurity · Python · Networking</text>
<rect x="310" y="560" width="26" height="26" rx="5" fill="#0e4429"/><rect x="344" y="560" width="26" height="26" rx="5" fill="#0e4429"/><rect x="378" y="560" width="26" height="26" rx="5" fill="#39d353"/><rect x="412" y="560" width="26" height="26" rx="5" fill="#0e4429"/><rect x="446" y="560" width="26" height="26" rx="5" fill="#0e4429"/><rect x="480" y="560" width="26" height="26" rx="5" fill="#0e4429"/><rect x="514" y="560" width="26" height="26" rx="5" fill="#1f1f1f"/><rect x="548" y="560" width="26" height="26" rx="5" fill="#0e4429"/><rect x="582" y="560" width="26" height="26" rx="5" fill="#006d32"/><rect x="616" y="560" width="26" height="26" rx="5" fill="#26a641"/><rect x="650" y="560" width="26" height="26" rx="5" fill="#1f1f1f"/><rect x="310" y="594" width="26" height="26" rx="5" fill="#1f1f1f"/><rect x="344" y="594" width="26" height="26" rx="5" fill="#1f1f1f"/><rect x="378" y="594" width="26" height="26" rx="5" fill="#26a641"/><rect x="412" y="594" width="26" height="26" rx="5" fill="#006d32"/><rect x="446" y="594" width="26" height="26" rx="5" fill="#1f1f1f"/><rect x="480" y="594" width="26" height="26" rx="5" fill="#39d353"/><rect x="514" y="594" width="26" height="26" rx="5" fill="#39d353"/><rect x="548" y="594" width="26" height="26" rx="5" fill="#006d32"/><rect x="582" y="594" width="26" height="26" rx="5" fill="#006d32"/><rect x="616" y="594" width="26" height="26" rx="5" fill="#1f1f1f"/><rect x="650" y="594" width="26" height="26" rx="5" fill="#1f1f1f"/><rect x="310" y="628" width="26" height="26" rx="5" fill="#0e4429"/><rect x="344" y="628" width="26" height="26" rx="5" fill="#1f1f1f"/><rect x="378" y="628" width="26" height="26" rx="5" fill="#1f1f1f"/><rect x="412" y="628" width="26" height="26" rx="5" fill="#1f1f1f"/><rect x="446" y="628" width="26" height="26" rx="5" fill="#1f1f1f"/><rect x="480" y="628" width="26" height="26" rx="5" fill="#0e4429"/><rect x="514" y="628" width="26" height="26" rx="5" fill="#0e4429"/><rect x="548" y="628" width="26" height="26" rx="5" fill="#26a641"/><rect x="582" y="628" width="26" height="26" rx="5" fill="#0e4429"/><rect x="616" y="628" width="26" height="26" rx="5" fill="#006d32"/><rect x="650" y="628" width="26" height="26" rx="5" fill="#0e4429"/><rect x="310" y="662" width="26" height="26" rx="5" fill="#006d32"/><rect x="344" y="662" width="26" height="26" rx="5" fill="#0e4429"/><rect x="378" y="662" width="26" height="26" rx="5" fill="#1f1f1f"/><rect x="412" y="662" width="26" height="26" rx="5" fill="#39d353"/><rect x="446" y="662" width="26" height="26" rx="5" fill="#39d353"/><rect x="480" y="662" width="26" height="26" rx="5" fill="#26a641"/><rect x="514" y="662" width="26" height="26" rx="5" fill="#006d32"/><rect x="548" y="662" width="26" height="26" rx="5" fill="#1f1f1f"/><rect x="582" y="662" width="26" height="26" rx="5" fill="#1f1f1f"/><rect x="616" y="662" width="26" height="26" rx="5" fill="#1f1f1f"/><rect x="650" y="662" width="26" height="26" rx="5" fill="#1f1f1f"/><rect x="310" y="696" width="26" height="26" rx="5" fill="#26a641"/><rect x="344" y="696" width="26" height="26" rx="5" fill="#1f1f1f"/><rect x="378" y="696" width="26" height="26" rx="5" fill="#26a641"/><rect x="412" y="696" width="26" height="26" rx="5" fill="#1f1f1f"/><rect x="446" y="696" width="26" height="26" rx="5" fill="#39d353"/><rect x="480" y="696" width="26" height="26" rx="5" fill="#26a641"/><rect x="514" y="696" width="26" height="26" rx="5" fill="#1f1f1f"/><rect x="548" y="696" width="26" height="26" rx="5" fill="#1f1f1f"/><rect x="582" y="696" width="26" height="26" rx="5" fill="#39d353"/><rect x="616" y="696" width="26" height="26" rx="5" fill="#0e4429"/><rect x="650" y="696" width="26" height="26" rx="5" fill="#39d353"/>
<text x="500" y="775" font-family="monospace" font-size="24" fill="#58a6ff" text-anchor="middle">kali-pentest-lab · redteam-sim</text></svg>