<svg xmlns="http://www.w3.org/2000/svg" width="1000" height="1000" viewBox="0 0 1000 1000"><rect width="1000" height="1000" fill="none"/><g opacity="0.35" stroke="#0099ff" stroke-width="2" fill="none">
<path d="M150 130h55M150 130v55"/><path d="M850 130h-55M850 130v55"/>
<path d="M150 870h55M150 870v-55"/><path d="M850 870h-55M850 870v-55"/></g><defs><linearGradient id="sbar" x1="0" y1="0" x2="1" y2="0"><stop offset="0" stop-color="#0099ff"/><stop offset="1" stop-color="#7fe0ff"/></linearGradient></defs>
<text x="500" y="230" font-family="Arial, Helvetica, sans-serif" font-size="26" fill="#0099ff" text-anchor="middle" letter-spacing="6" font-weight="700">YETKİNLİK</text>
<g transform="translate(500 330)"><g opacity="0.12" stroke="#fff" fill="none"><polygon points="0,-95 82,-47 82,47 0,95 -82,47 -82,-47"/></g>
<polygon points="0,-86 76,-42 71,40 0,76 -64,37 -68,-40" fill="rgba(0,153,255,0.2)" stroke="#0099ff" stroke-width="2.5"/></g>
<text x="500" y="440" font-family="Arial, Helvetica, sans-serif" font-size="26" fill="#fff" text-anchor="middle" font-weight="700">Yetkinlik Dağılımı</text><text x="220" y="470" font-family="Arial, Helvetica, sans-serif" font-size="24" fill="#ddd">Red Team Ops</text><text x="780" y="470" font-family="Arial, Helvetica, sans-serif" font-size="22" fill="#7fe0ff" text-anchor="end">90%</text><rect x="220" y="484" width="560" height="14" rx="7" fill="#242424"/><rect x="220" y="484" width="504" height="14" rx="7" fill="url(#sbar)"/><text x="220" y="532" font-family="Arial, Helvetica, sans-serif" font-size="24" fill="#ddd">Ağ &amp; Sistem</text><text x="780" y="532" font-family="Arial, Helvetica, sans-serif" font-size="22" fill="#7fe0ff" text-anchor="end">85%</text><rect x="220" y="546" width="560" height="14" rx="7" fill="#242424"/><rect x="220" y="546" width="476" height="14" rx="7" fill="url(#sbar)"/><text x="220" y="594" font-family="Arial, Helvetica, sans-serif" font-size="24" fill="#ddd">Python</text><text x="780" y="594" font-family="Arial, Helvetica, sans-serif" font-size="22" fill="#7fe0ff" text-anchor="end">85%</text><rect x="220" y="608" width="560" height="14" rx="7" fill="#242424"/><rect x="220" y="608" width="476" height="14" rx="7" fill="url(#sbar)"/><text x="220" y="656" font-family="Arial, Helvetica, sans-serif" font-size="24" fill="#ddd">Pentest</text><text x="780" y="656" font-family="Arial, Helvetica, sans-serif" font-size="22" fill="#7fe0ff" text-anchor="end">80%</text><rect x="220" y="670" width="560" height="14" rx="7" fill="#242424"/><rect x="220" y="670" width="448" height="14" rx="7" fill="url(#sbar)"/><text x="220" y="718" font-family="Arial, Helvetica, sans-serif" font-size="24" fill="#ddd">Kriptoloji</text><text x="780" y="718" font-family="Arial, Helvetica, sans-serif" font-size="22" fill="#7fe0ff" text-anchor="end">75%</text><rect x="220" y="732" width="560" height="14" rx="7" fill="#242424"/><rect x="220" y="732" width="420" height="14" rx="7" fill="url(#sbar)"/></svg>