<svg xmlns="http://www.w3.org/2000/svg" width="960" height="1200" viewBox="0 0 960 1200">
<defs><linearGradient id="cb" x1="0" y1="0" x2="1" y2="1"><stop offset="0" stop-color="#151515"/><stop offset="1" stop-color="#090909"/></linearGradient></defs>
<rect width="960" height="1200" fill="url(#cb)"/>
<g transform="translate(480 150)"><circle r="70" fill="none" stroke="#0099ff" stroke-width="3"/><path d="M-24 -6l16 17 32 -35" fill="none" stroke="#0099ff" stroke-width="8" stroke-linecap="round" stroke-linejoin="round"/></g>
<text x="480" y="290" font-family="Arial, Helvetica, sans-serif" font-size="44" font-weight="800" fill="#fff" text-anchor="middle">11 Sertifika</text>
<text x="480" y="332" font-family="Arial, Helvetica, sans-serif" font-size="22" fill="#888" text-anchor="middle">Siber güvenlik · ağ · yazılım</text>
<g font-family="Arial, Helvetica, sans-serif" font-size="22"><rect x="110" y="380" width="740" height="82" rx="14" fill="#1a1a1a" stroke="#2a2a2a"/><circle cx="152" cy="421" r="18" fill="#0d2436"/><path d="M143 421l6 7 12 -13" fill="none" stroke="#0099ff" stroke-width="4" stroke-linecap="round" stroke-linejoin="round"/><text x="195" y="417" fill="#eee" font-weight="600">Red Team Operations (CRTOM)</text><text x="195" y="444" fill="#777" font-size="18">Red Team Leaders</text><rect x="110" y="475" width="740" height="82" rx="14" fill="#1a1a1a" stroke="#2a2a2a"/><circle cx="152" cy="516" r="18" fill="#0d2436"/><path d="M143 516l6 7 12 -13" fill="none" stroke="#0099ff" stroke-width="4" stroke-linecap="round" stroke-linejoin="round"/><text x="195" y="512" fill="#eee" font-weight="600">Siber Olaylara Müdahale</text><text x="195" y="539" fill="#777" font-size="18">BTK Akademi</text><rect x="110" y="570" width="740" height="82" rx="14" fill="#1a1a1a" stroke="#2a2a2a"/><circle cx="152" cy="611" r="18" fill="#0d2436"/><path d="M143 611l6 7 12 -13" fill="none" stroke="#0099ff" stroke-width="4" stroke-linecap="round" stroke-linejoin="round"/><text x="195" y="607" fill="#eee" font-weight="600">Python ile Siber Güvenlik</text><text x="195" y="634" fill="#777" font-size="18">BTK Akademi</text><rect x="110" y="665" width="740" height="82" rx="14" fill="#1a1a1a" stroke="#2a2a2a"/><circle cx="152" cy="706" r="18" fill="#0d2436"/><path d="M143 706l6 7 12 -13" fill="none" stroke="#0099ff" stroke-width="4" stroke-linecap="round" stroke-linejoin="round"/><text x="195" y="702" fill="#eee" font-weight="600">Siber Güvenliğe Giriş</text><text x="195" y="729" fill="#777" font-size="18">BTK Akademi</text><rect x="110" y="760" width="740" height="82" rx="14" fill="#1a1a1a" stroke="#2a2a2a"/><circle cx="152" cy="801" r="18" fill="#0d2436"/><path d="M143 801l6 7 12 -13" fill="none" stroke="#0099ff" stroke-width="4" stroke-linecap="round" stroke-linejoin="round"/><text x="195" y="797" fill="#eee" font-weight="600">IT Essentials 7</text><text x="195" y="824" fill="#777" font-size="18">Cisco NetAcad</text><rect x="110" y="855" width="740" height="82" rx="14" fill="#1a1a1a" stroke="#2a2a2a"/><circle cx="152" cy="896" r="18" fill="#0d2436"/><path d="M143 896l6 7 12 -13" fill="none" stroke="#0099ff" stroke-width="4" stroke-linecap="round" stroke-linejoin="round"/><text x="195" y="892" fill="#eee" font-weight="600">Networking Essentials</text><text x="195" y="919" fill="#777" font-size="18">Cisco NetAcad</text><rect x="110" y="950" width="740" height="82" rx="14" fill="#1a1a1a" stroke="#2a2a2a"/><circle cx="152" cy="991" r="18" fill="#0d2436"/><path d="M143 991l6 7 12 -13" fill="none" stroke="#0099ff" stroke-width="4" stroke-linecap="round" stroke-linejoin="round"/><text x="195" y="987" fill="#eee" font-weight="600">Python Essentials 1 ve 2</text><text x="195" y="1014" fill="#777" font-size="18">Cisco NetAcad</text><rect x="110" y="1045" width="740" height="82" rx="14" fill="#1a1a1a" stroke="#2a2a2a"/><circle cx="152" cy="1086" r="18" fill="#0d2436"/><path d="M143 1086l6 7 12 -13" fill="none" stroke="#0099ff" stroke-width="4" stroke-linecap="round" stroke-linejoin="round"/><text x="195" y="1082" fill="#eee" font-weight="600">JavaScript Essentials 1</text><text x="195" y="1109" fill="#777" font-size="18">Cisco NetAcad</text></g></svg>