<svg xmlns="http://www.w3.org/2000/svg" width="1200" height="1200" viewBox="0 0 1200 1200">
<defs><linearGradient id="gb" x1="0" y1="0" x2="1" y2="1"><stop offset="0" stop-color="#161616"/><stop offset="1" stop-color="#0a0a0a"/></linearGradient></defs>
<rect width="1200" height="1200" fill="url(#gb)"/>
<g transform="translate(600 280)"><circle r="110" fill="#1c1c1c" stroke="#333" stroke-width="3"/>
<path transform="translate(-78 -78) scale(6.5)" fill="#e8e8e8" d="M12 2C6.5 2 2 6.5 2 12c0 4.4 2.9 8.1 6.8 9.5.5.1.7-.2.7-.5v-1.7c-2.8.6-3.4-1.2-3.4-1.2-.4-1.1-1.1-1.4-1.1-1.4-.9-.6.1-.6.1-.6 1 .1 1.5 1 1.5 1 .9 1.5 2.3 1.1 2.9.8.1-.6.3-1.1.6-1.3-2.2-.2-4.6-1.1-4.6-4.9 0-1.1.4-2 1-2.7-.1-.3-.4-1.3.1-2.6 0 0 .8-.3 2.7 1a9.4 9.4 0 0 1 5 0c1.9-1.3 2.7-1 2.7-1 .5 1.3.2 2.3.1 2.6.6.7 1 1.6 1 2.7 0 3.8-2.3 4.7-4.6 4.9.4.3.7.9.7 1.9v2.8c0 .3.2.6.7.5 3.9-1.4 6.8-5.1 6.8-9.5C22 6.5 17.5 2 12 2z"/></g>
<text x="600" y="450" font-family="Arial, Helvetica, sans-serif" font-size="52" font-weight="800" fill="#fff" text-anchor="middle">NidaSu0</text>
<text x="600" y="500" font-family="Arial, Helvetica, sans-serif" font-size="26" fill="#888" text-anchor="middle">Cybersecurity · Python · Networking</text>
<g transform="translate(230 570)"><rect x="0" y="0" width="28" height="28" rx="6" fill="#0e4429"/><rect x="35" y="0" width="28" height="28" rx="6" fill="#0e4429"/><rect x="70" y="0" width="28" height="28" rx="6" fill="#39d353"/><rect x="105" y="0" width="28" height="28" rx="6" fill="#0e4429"/><rect x="140" y="0" width="28" height="28" rx="6" fill="#0e4429"/><rect x="175" y="0" width="28" height="28" rx="6" fill="#0e4429"/><rect x="210" y="0" width="28" height="28" rx="6" fill="#1a1a1a"/><rect x="245" y="0" width="28" height="28" rx="6" fill="#0e4429"/><rect x="280" y="0" width="28" height="28" rx="6" fill="#006d32"/><rect x="315" y="0" width="28" height="28" rx="6" fill="#26a641"/><rect x="350" y="0" width="28" height="28" rx="6" fill="#1a1a1a"/><rect x="385" y="0" width="28" height="28" rx="6" fill="#1a1a1a"/><rect x="420" y="0" width="28" height="28" rx="6" fill="#1a1a1a"/><rect x="455" y="0" width="28" height="28" rx="6" fill="#26a641"/><rect x="490" y="0" width="28" height="28" rx="6" fill="#006d32"/><rect x="525" y="0" width="28" height="28" rx="6" fill="#1a1a1a"/><rect x="560" y="0" width="28" height="28" rx="6" fill="#39d353"/><rect x="595" y="0" width="28" height="28" rx="6" fill="#39d353"/><rect x="630" y="0" width="28" height="28" rx="6" fill="#006d32"/><rect x="665" y="0" width="28" height="28" rx="6" fill="#006d32"/><rect x="700" y="0" width="28" height="28" rx="6" fill="#1a1a1a"/><rect x="0" y="35" width="28" height="28" rx="6" fill="#1a1a1a"/><rect x="35" y="35" width="28" height="28" rx="6" fill="#0e4429"/><rect x="70" y="35" width="28" height="28" rx="6" fill="#1a1a1a"/><rect x="105" y="35" width="28" height="28" rx="6" fill="#1a1a1a"/><rect x="140" y="35" width="28" height="28" rx="6" fill="#1a1a1a"/><rect x="175" y="35" width="28" height="28" rx="6" fill="#1a1a1a"/><rect x="210" y="35" width="28" height="28" rx="6" fill="#0e4429"/><rect x="245" y="35" width="28" height="28" rx="6" fill="#0e4429"/><rect x="280" y="35" width="28" height="28" rx="6" fill="#26a641"/><rect x="315" y="35" width="28" height="28" rx="6" fill="#0e4429"/><rect x="350" y="35" width="28" height="28" rx="6" fill="#006d32"/><rect x="385" y="35" width="28" height="28" rx="6" fill="#0e4429"/><rect x="420" y="35" width="28" height="28" rx="6" fill="#006d32"/><rect x="455" y="35" width="28" height="28" rx="6" fill="#0e4429"/><rect x="490" y="35" width="28" height="28" rx="6" fill="#1a1a1a"/><rect x="525" y="35" width="28" height="28" rx="6" fill="#39d353"/><rect x="560" y="35" width="28" height="28" rx="6" fill="#39d353"/><rect x="595" y="35" width="28" height="28" rx="6" fill="#26a641"/><rect x="630" y="35" width="28" height="28" rx="6" fill="#006d32"/><rect x="665" y="35" width="28" height="28" rx="6" fill="#1a1a1a"/><rect x="700" y="35" width="28" height="28" rx="6" fill="#1a1a1a"/><rect x="0" y="70" width="28" height="28" rx="6" fill="#1a1a1a"/><rect x="35" y="70" width="28" height="28" rx="6" fill="#1a1a1a"/><rect x="70" y="70" width="28" height="28" rx="6" fill="#26a641"/><rect x="105" y="70" width="28" height="28" rx="6" fill="#1a1a1a"/><rect x="140" y="70" width="28" height="28" rx="6" fill="#26a641"/><rect x="175" y="70" width="28" height="28" rx="6" fill="#1a1a1a"/><rect x="210" y="70" width="28" height="28" rx="6" fill="#39d353"/><rect x="245" y="70" width="28" height="28" rx="6" fill="#26a641"/><rect x="280" y="70" width="28" height="28" rx="6" fill="#1a1a1a"/><rect x="315" y="70" width="28" height="28" rx="6" fill="#1a1a1a"/><rect x="350" y="70" width="28" height="28" rx="6" fill="#39d353"/><rect x="385" y="70" width="28" height="28" rx="6" fill="#0e4429"/><rect x="420" y="70" width="28" height="28" rx="6" fill="#39d353"/><rect x="455" y="70" width="28" height="28" rx="6" fill="#1a1a1a"/><rect x="490" y="70" width="28" height="28" rx="6" fill="#1a1a1a"/><rect x="525" y="70" width="28" height="28" rx="6" fill="#006d32"/><rect x="560" y="70" width="28" height="28" rx="6" fill="#26a641"/><rect x="595" y="70" width="28" height="28" rx="6" fill="#1a1a1a"/><rect x="630" y="70" width="28" height="28" rx="6" fill="#1a1a1a"/><rect x="665" y="70" width="28" height="28" rx="6" fill="#1a1a1a"/><rect x="700" y="70" width="28" height="28" rx="6" fill="#39d353"/><rect x="0" y="105" width="28" height="28" rx="6" fill="#006d32"/><rect x="35" y="105" width="28" height="28" rx="6" fill="#1a1a1a"/><rect x="70" y="105" width="28" height="28" rx="6" fill="#1a1a1a"/><rect x="105" y="105" width="28" height="28" rx="6" fill="#1a1a1a"/><rect x="140" y="105" width="28" height="28" rx="6" fill="#1a1a1a"/><rect x="175" y="105" width="28" height="28" rx="6" fill="#26a641"/><rect x="210" y="105" width="28" height="28" rx="6" fill="#1a1a1a"/><rect x="245" y="105" width="28" height="28" rx="6" fill="#0e4429"/><rect x="280" y="105" width="28" height="28" rx="6" fill="#0e4429"/><rect x="315" y="105" width="28" height="28" rx="6" fill="#1a1a1a"/><rect x="350" y="105" width="28" height="28" rx="6" fill="#006d32"/><rect x="385" y="105" width="28" height="28" rx="6" fill="#1a1a1a"/><rect x="420" y="105" width="28" height="28" rx="6" fill="#006d32"/><rect x="455" y="105" width="28" height="28" rx="6" fill="#1a1a1a"/><rect x="490" y="105" width="28" height="28" rx="6" fill="#0e4429"/><rect x="525" y="105" width="28" height="28" rx="6" fill="#1a1a1a"/><rect x="560" y="105" width="28" height="28" rx="6" fill="#1a1a1a"/><rect x="595" y="105" width="28" height="28" rx="6" fill="#39d353"/><rect x="630" y="105" width="28" height="28" rx="6" fill="#26a641"/><rect x="665" y="105" width="28" height="28" rx="6" fill="#1a1a1a"/><rect x="700" y="105" width="28" height="28" rx="6" fill="#26a641"/><rect x="0" y="140" width="28" height="28" rx="6" fill="#1a1a1a"/><rect x="35" y="140" width="28" height="28" rx="6" fill="#1a1a1a"/><rect x="70" y="140" width="28" height="28" rx="6" fill="#26a641"/><rect x="105" y="140" width="28" height="28" rx="6" fill="#006d32"/><rect x="140" y="140" width="28" height="28" rx="6" fill="#1a1a1a"/><rect x="175" y="140" width="28" height="28" rx="6" fill="#39d353"/><rect x="210" y="140" width="28" height="28" rx="6" fill="#1a1a1a"/><rect x="245" y="140" width="28" height="28" rx="6" fill="#1a1a1a"/><rect x="280" y="140" width="28" height="28" rx="6" fill="#26a641"/><rect x="315" y="140" width="28" height="28" rx="6" fill="#1a1a1a"/><rect x="350" y="140" width="28" height="28" rx="6" fill="#1a1a1a"/><rect x="385" y="140" width="28" height="28" rx="6" fill="#1a1a1a"/><rect x="420" y="140" width="28" height="28" rx="6" fill="#1a1a1a"/><rect x="455" y="140" width="28" height="28" rx="6" fill="#0e4429"/><rect x="490" y="140" width="28" height="28" rx="6" fill="#1a1a1a"/><rect x="525" y="140" width="28" height="28" rx="6" fill="#006d32"/><rect x="560" y="140" width="28" height="28" rx="6" fill="#1a1a1a"/><rect x="595" y="140" width="28" height="28" rx="6" fill="#0e4429"/><rect x="630" y="140" width="28" height="28" rx="6" fill="#39d353"/><rect x="665" y="140" width="28" height="28" rx="6" fill="#0e4429"/><rect x="700" y="140" width="28" height="28" rx="6" fill="#0e4429"/><rect x="0" y="175" width="28" height="28" rx="6" fill="#26a641"/><rect x="35" y="175" width="28" height="28" rx="6" fill="#1a1a1a"/><rect x="70" y="175" width="28" height="28" rx="6" fill="#1a1a1a"/><rect x="105" y="175" width="28" height="28" rx="6" fill="#39d353"/><rect x="140" y="175" width="28" height="28" rx="6" fill="#26a641"/><rect x="175" y="175" width="28" height="28" rx="6" fill="#1a1a1a"/><rect x="210" y="175" width="28" height="28" rx="6" fill="#1a1a1a"/><rect x="245" y="175" width="28" height="28" rx="6" fill="#006d32"/><rect x="280" y="175" width="28" height="28" rx="6" fill="#39d353"/><rect x="315" y="175" width="28" height="28" rx="6" fill="#1a1a1a"/><rect x="350" y="175" width="28" height="28" rx="6" fill="#39d353"/><rect x="385" y="175" width="28" height="28" rx="6" fill="#26a641"/><rect x="420" y="175" width="28" height="28" rx="6" fill="#006d32"/><rect x="455" y="175" width="28" height="28" rx="6" fill="#0e4429"/><rect x="490" y="175" width="28" height="28" rx="6" fill="#1a1a1a"/><rect x="525" y="175" width="28" height="28" rx="6" fill="#1a1a1a"/><rect x="560" y="175" width="28" height="28" rx="6" fill="#39d353"/><rect x="595" y="175" width="28" height="28" rx="6" fill="#1a1a1a"/><rect x="630" y="175" width="28" height="28" rx="6" fill="#006d32"/><rect x="665" y="175" width="28" height="28" rx="6" fill="#1a1a1a"/><rect x="700" y="175" width="28" height="28" rx="6" fill="#26a641"/><rect x="0" y="210" width="28" height="28" rx="6" fill="#0e4429"/><rect x="35" y="210" width="28" height="28" rx="6" fill="#1a1a1a"/><rect x="70" y="210" width="28" height="28" rx="6" fill="#1a1a1a"/><rect x="105" y="210" width="28" height="28" rx="6" fill="#006d32"/><rect x="140" y="210" width="28" height="28" rx="6" fill="#1a1a1a"/><rect x="175" y="210" width="28" height="28" rx="6" fill="#1a1a1a"/><rect x="210" y="210" width="28" height="28" rx="6" fill="#0e4429"/><rect x="245" y="210" width="28" height="28" rx="6" fill="#26a641"/><rect x="280" y="210" width="28" height="28" rx="6" fill="#006d32"/><rect x="315" y="210" width="28" height="28" rx="6" fill="#1a1a1a"/><rect x="350" y="210" width="28" height="28" rx="6" fill="#39d353"/><rect x="385" y="210" width="28" height="28" rx="6" fill="#1a1a1a"/><rect x="420" y="210" width="28" height="28" rx="6" fill="#1a1a1a"/><rect x="455" y="210" width="28" height="28" rx="6" fill="#1a1a1a"/><rect x="490" y="210" width="28" height="28" rx="6" fill="#0e4429"/><rect x="525" y="210" width="28" height="28" rx="6" fill="#1a1a1a"/><rect x="560" y="210" width="28" height="28" rx="6" fill="#1a1a1a"/><rect x="595" y="210" width="28" height="28" rx="6" fill="#1a1a1a"/><rect x="630" y="210" width="28" height="28" rx="6" fill="#0e4429"/><rect x="665" y="210" width="28" height="28" rx="6" fill="#1a1a1a"/><rect x="700" y="210" width="28" height="28" rx="6" fill="#1a1a1a"/></g>
<g font-family="monospace" font-size="24">
<rect x="230" y="880" width="740" height="80" rx="12" fill="#1c1c1c" stroke="#2a2a2a"/><text x="260" y="915" fill="#58a6ff">kali-pentest-lab</text><text x="260" y="945" fill="#666" font-size="20">Python · sızma testi otomasyonu</text>
<rect x="230" y="975" width="740" height="80" rx="12" fill="#1c1c1c" stroke="#2a2a2a"/><text x="260" y="1010" fill="#58a6ff">redteam-simulation</text><text x="260" y="1040" fill="#666" font-size="20">Red team operasyon senaryoları</text>
<rect x="230" y="1070" width="740" height="80" rx="12" fill="#1c1c1c" stroke="#2a2a2a"/><text x="260" y="1105" fill="#58a6ff">mobile-security</text><text x="260" y="1135" fill="#666" font-size="20">Mobil güvenlik · bitirme projesi</text>
</g></svg>