<svg xmlns="http://www.w3.org/2000/svg" width="600" height="600" viewBox="0 0 600 600">
<defs><linearGradient id="gb" x1="0" y1="0" x2="1" y2="1"><stop offset="0" stop-color="#161616"/><stop offset="1" stop-color="#0a0a0a"/></linearGradient></defs>
<rect width="600" height="600" fill="url(#gb)"/>
<g transform="translate(300 120)"><circle r="60" fill="#1c1c1c" stroke="#333" stroke-width="2"/>
<path transform="translate(-42 -42) scale(3.480)" fill="#e8e8e8" d="M12 2C6.5 2 2 6.5 2 12c0 4.4 2.9 8.1 6.8 9.5.5.1.7-.2.7-.5v-1.7c-2.8.6-3.4-1.2-3.4-1.2-.4-1.1-1.1-1.4-1.1-1.4-.9-.6.1-.6.1-.6 1 .1 1.5 1 1.5 1 .9 1.5 2.3 1.1 2.9.8.1-.6.3-1.1.6-1.3-2.2-.2-4.6-1.1-4.6-4.9 0-1.1.4-2 1-2.7-.1-.3-.4-1.3.1-2.6 0 0 .8-.3 2.7 1a9.4 9.4 0 0 1 5 0c1.9-1.3 2.7-1 2.7-1 .5 1.3.2 2.3.1 2.6.6.7 1 1.6 1 2.7 0 3.8-2.3 4.7-4.6 4.9.4.3.7.9.7 1.9v2.8c0 .3.2.6.7.5 3.9-1.4 6.8-5.1 6.8-9.5C22 6.5 17.5 2 12 2z"/></g>
<text x="300" y="216" font-family="Arial, Helvetica, sans-serif" font-size="42" font-weight="800" fill="#fff" text-anchor="middle">NidaSu0</text>
<text x="300" y="252" font-family="Arial, Helvetica, sans-serif" font-size="22" fill="#888" text-anchor="middle">Cybersecurity · Python · Networking</text>
<g transform="translate(72 300)"><rect x="0.0" y="0.0" width="20.3" height="20.3" rx="3" fill="#0e4429"/><rect x="25.3" y="0.0" width="20.3" height="20.3" rx="3" fill="#0e4429"/><rect x="50.7" y="0.0" width="20.3" height="20.3" rx="3" fill="#39d353"/><rect x="76.0" y="0.0" width="20.3" height="20.3" rx="3" fill="#0e4429"/><rect x="101.3" y="0.0" width="20.3" height="20.3" rx="3" fill="#0e4429"/><rect x="126.7" y="0.0" width="20.3" height="20.3" rx="3" fill="#0e4429"/><rect x="152.0" y="0.0" width="20.3" height="20.3" rx="3" fill="#1a1a1a"/><rect x="177.3" y="0.0" width="20.3" height="20.3" rx="3" fill="#0e4429"/><rect x="202.7" y="0.0" width="20.3" height="20.3" rx="3" fill="#006d32"/><rect x="228.0" y="0.0" width="20.3" height="20.3" rx="3" fill="#26a641"/><rect x="253.3" y="0.0" width="20.3" height="20.3" rx="3" fill="#1a1a1a"/><rect x="278.7" y="0.0" width="20.3" height="20.3" rx="3" fill="#1a1a1a"/><rect x="304.0" y="0.0" width="20.3" height="20.3" rx="3" fill="#1a1a1a"/><rect x="329.3" y="0.0" width="20.3" height="20.3" rx="3" fill="#26a641"/><rect x="354.7" y="0.0" width="20.3" height="20.3" rx="3" fill="#006d32"/><rect x="380.0" y="0.0" width="20.3" height="20.3" rx="3" fill="#1a1a1a"/><rect x="405.3" y="0.0" width="20.3" height="20.3" rx="3" fill="#39d353"/><rect x="430.7" y="0.0" width="20.3" height="20.3" rx="3" fill="#39d353"/><rect x="0.0" y="25.3" width="20.3" height="20.3" rx="3" fill="#006d32"/><rect x="25.3" y="25.3" width="20.3" height="20.3" rx="3" fill="#006d32"/><rect x="50.7" y="25.3" width="20.3" height="20.3" rx="3" fill="#1a1a1a"/><rect x="76.0" y="25.3" width="20.3" height="20.3" rx="3" fill="#1a1a1a"/><rect x="101.3" y="25.3" width="20.3" height="20.3" rx="3" fill="#0e4429"/><rect x="126.7" y="25.3" width="20.3" height="20.3" rx="3" fill="#1a1a1a"/><rect x="152.0" y="25.3" width="20.3" height="20.3" rx="3" fill="#1a1a1a"/><rect x="177.3" y="25.3" width="20.3" height="20.3" rx="3" fill="#1a1a1a"/><rect x="202.7" y="25.3" width="20.3" height="20.3" rx="3" fill="#1a1a1a"/><rect x="228.0" y="25.3" width="20.3" height="20.3" rx="3" fill="#0e4429"/><rect x="253.3" y="25.3" width="20.3" height="20.3" rx="3" fill="#0e4429"/><rect x="278.7" y="25.3" width="20.3" height="20.3" rx="3" fill="#26a641"/><rect x="304.0" y="25.3" width="20.3" height="20.3" rx="3" fill="#0e4429"/><rect x="329.3" y="25.3" width="20.3" height="20.3" rx="3" fill="#006d32"/><rect x="354.7" y="25.3" width="20.3" height="20.3" rx="3" fill="#0e4429"/><rect x="380.0" y="25.3" width="20.3" height="20.3" rx="3" fill="#006d32"/><rect x="405.3" y="25.3" width="20.3" height="20.3" rx="3" fill="#0e4429"/><rect x="430.7" y="25.3" width="20.3" height="20.3" rx="3" fill="#1a1a1a"/><rect x="0.0" y="50.7" width="20.3" height="20.3" rx="3" fill="#39d353"/><rect x="25.3" y="50.7" width="20.3" height="20.3" rx="3" fill="#39d353"/><rect x="50.7" y="50.7" width="20.3" height="20.3" rx="3" fill="#26a641"/><rect x="76.0" y="50.7" width="20.3" height="20.3" rx="3" fill="#006d32"/><rect x="101.3" y="50.7" width="20.3" height="20.3" rx="3" fill="#1a1a1a"/><rect x="126.7" y="50.7" width="20.3" height="20.3" rx="3" fill="#1a1a1a"/><rect x="152.0" y="50.7" width="20.3" height="20.3" rx="3" fill="#1a1a1a"/><rect x="177.3" y="50.7" width="20.3" height="20.3" rx="3" fill="#1a1a1a"/><rect x="202.7" y="50.7" width="20.3" height="20.3" rx="3" fill="#26a641"/><rect x="228.0" y="50.7" width="20.3" height="20.3" rx="3" fill="#1a1a1a"/><rect x="253.3" y="50.7" width="20.3" height="20.3" rx="3" fill="#26a641"/><rect x="278.7" y="50.7" width="20.3" height="20.3" rx="3" fill="#1a1a1a"/><rect x="304.0" y="50.7" width="20.3" height="20.3" rx="3" fill="#39d353"/><rect x="329.3" y="50.7" width="20.3" height="20.3" rx="3" fill="#26a641"/><rect x="354.7" y="50.7" width="20.3" height="20.3" rx="3" fill="#1a1a1a"/><rect x="380.0" y="50.7" width="20.3" height="20.3" rx="3" fill="#1a1a1a"/><rect x="405.3" y="50.7" width="20.3" height="20.3" rx="3" fill="#39d353"/><rect x="430.7" y="50.7" width="20.3" height="20.3" rx="3" fill="#0e4429"/><rect x="0.0" y="76.0" width="20.3" height="20.3" rx="3" fill="#39d353"/><rect x="25.3" y="76.0" width="20.3" height="20.3" rx="3" fill="#1a1a1a"/><rect x="50.7" y="76.0" width="20.3" height="20.3" rx="3" fill="#1a1a1a"/><rect x="76.0" y="76.0" width="20.3" height="20.3" rx="3" fill="#006d32"/><rect x="101.3" y="76.0" width="20.3" height="20.3" rx="3" fill="#26a641"/><rect x="126.7" y="76.0" width="20.3" height="20.3" rx="3" fill="#1a1a1a"/><rect x="152.0" y="76.0" width="20.3" height="20.3" rx="3" fill="#1a1a1a"/><rect x="177.3" y="76.0" width="20.3" height="20.3" rx="3" fill="#1a1a1a"/><rect x="202.7" y="76.0" width="20.3" height="20.3" rx="3" fill="#39d353"/><rect x="228.0" y="76.0" width="20.3" height="20.3" rx="3" fill="#006d32"/><rect x="253.3" y="76.0" width="20.3" height="20.3" rx="3" fill="#1a1a1a"/><rect x="278.7" y="76.0" width="20.3" height="20.3" rx="3" fill="#1a1a1a"/><rect x="304.0" y="76.0" width="20.3" height="20.3" rx="3" fill="#1a1a1a"/><rect x="329.3" y="76.0" width="20.3" height="20.3" rx="3" fill="#1a1a1a"/><rect x="354.7" y="76.0" width="20.3" height="20.3" rx="3" fill="#26a641"/><rect x="380.0" y="76.0" width="20.3" height="20.3" rx="3" fill="#1a1a1a"/><rect x="405.3" y="76.0" width="20.3" height="20.3" rx="3" fill="#0e4429"/><rect x="430.7" y="76.0" width="20.3" height="20.3" rx="3" fill="#0e4429"/><rect x="0.0" y="101.3" width="20.3" height="20.3" rx="3" fill="#1a1a1a"/><rect x="25.3" y="101.3" width="20.3" height="20.3" rx="3" fill="#006d32"/><rect x="50.7" y="101.3" width="20.3" height="20.3" rx="3" fill="#1a1a1a"/><rect x="76.0" y="101.3" width="20.3" height="20.3" rx="3" fill="#006d32"/><rect x="101.3" y="101.3" width="20.3" height="20.3" rx="3" fill="#1a1a1a"/><rect x="126.7" y="101.3" width="20.3" height="20.3" rx="3" fill="#0e4429"/><rect x="152.0" y="101.3" width="20.3" height="20.3" rx="3" fill="#1a1a1a"/><rect x="177.3" y="101.3" width="20.3" height="20.3" rx="3" fill="#1a1a1a"/><rect x="202.7" y="101.3" width="20.3" height="20.3" rx="3" fill="#39d353"/><rect x="228.0" y="101.3" width="20.3" height="20.3" rx="3" fill="#26a641"/><rect x="253.3" y="101.3" width="20.3" height="20.3" rx="3" fill="#1a1a1a"/><rect x="278.7" y="101.3" width="20.3" height="20.3" rx="3" fill="#26a641"/><rect x="304.0" y="101.3" width="20.3" height="20.3" rx="3" fill="#1a1a1a"/><rect x="329.3" y="101.3" width="20.3" height="20.3" rx="3" fill="#1a1a1a"/><rect x="354.7" y="101.3" width="20.3" height="20.3" rx="3" fill="#26a641"/><rect x="380.0" y="101.3" width="20.3" height="20.3" rx="3" fill="#006d32"/><rect x="405.3" y="101.3" width="20.3" height="20.3" rx="3" fill="#1a1a1a"/><rect x="430.7" y="101.3" width="20.3" height="20.3" rx="3" fill="#39d353"/><rect x="0.0" y="126.7" width="20.3" height="20.3" rx="3" fill="#1a1a1a"/><rect x="25.3" y="126.7" width="20.3" height="20.3" rx="3" fill="#1a1a1a"/><rect x="50.7" y="126.7" width="20.3" height="20.3" rx="3" fill="#26a641"/><rect x="76.0" y="126.7" width="20.3" height="20.3" rx="3" fill="#1a1a1a"/><rect x="101.3" y="126.7" width="20.3" height="20.3" rx="3" fill="#1a1a1a"/><rect x="126.7" y="126.7" width="20.3" height="20.3" rx="3" fill="#1a1a1a"/><rect x="152.0" y="126.7" width="20.3" height="20.3" rx="3" fill="#1a1a1a"/><rect x="177.3" y="126.7" width="20.3" height="20.3" rx="3" fill="#0e4429"/><rect x="202.7" y="126.7" width="20.3" height="20.3" rx="3" fill="#1a1a1a"/><rect x="228.0" y="126.7" width="20.3" height="20.3" rx="3" fill="#006d32"/><rect x="253.3" y="126.7" width="20.3" height="20.3" rx="3" fill="#1a1a1a"/><rect x="278.7" y="126.7" width="20.3" height="20.3" rx="3" fill="#0e4429"/><rect x="304.0" y="126.7" width="20.3" height="20.3" rx="3" fill="#39d353"/><rect x="329.3" y="126.7" width="20.3" height="20.3" rx="3" fill="#0e4429"/><rect x="354.7" y="126.7" width="20.3" height="20.3" rx="3" fill="#0e4429"/><rect x="380.0" y="126.7" width="20.3" height="20.3" rx="3" fill="#26a641"/><rect x="405.3" y="126.7" width="20.3" height="20.3" rx="3" fill="#1a1a1a"/><rect x="430.7" y="126.7" width="20.3" height="20.3" rx="3" fill="#1a1a1a"/></g>
<g font-family="monospace" font-size="21">
<rect x="72" y="432" width="456" height="42" rx="8" fill="#1c1c1c" stroke="#2a2a2a"/><text x="90" y="459" fill="#58a6ff">kali-pentest-lab</text>
<rect x="72" y="483" width="456" height="42" rx="8" fill="#1c1c1c" stroke="#2a2a2a"/><text x="90" y="510" fill="#58a6ff">redteam-simulation</text>
<rect x="72" y="534" width="456" height="42" rx="8" fill="#1c1c1c" stroke="#2a2a2a"/><text x="90" y="561" fill="#58a6ff">mobile-security</text>
</g></svg>