<svg xmlns="http://www.w3.org/2000/svg" width="800" height="1000" viewBox="0 0 800 1000">
<defs><linearGradient id="cb" x1="0" y1="0" x2="1" y2="1"><stop offset="0" stop-color="#151515"/><stop offset="1" stop-color="#090909"/></linearGradient></defs>
<rect width="800" height="1000" fill="url(#cb)"/>
<g transform="translate(400 175)"><circle r="65" fill="none" stroke="#0099ff" stroke-width="3"/>
<path d="M-22 -5l14 15 30 -32" fill="none" stroke="#0099ff" stroke-width="7" stroke-linecap="round" stroke-linejoin="round"/>
<path d="M0 55l-22 38 22 -12 22 12z" fill="#0099ff"/></g>
<text x="400" y="290" font-family="Arial" font-size="30" font-weight="700" fill="#fff" text-anchor="middle">11 Sertifika</text>
<text x="400" y="325" font-family="Arial" font-size="16" fill="#888" text-anchor="middle">Siber güvenlik · ağ · yazılım</text>
<g font-family="Arial" font-size="16"><rect x="120" y="370" width="560" height="62" rx="12" fill="#1a1a1a" stroke="#2a2a2a"/><circle cx="152" cy="401" r="14" fill="#0d2436"/><path d="M145 401l5 5 9 -10" fill="none" stroke="#0099ff" stroke-width="3" stroke-linecap="round" stroke-linejoin="round"/><text x="185" y="398" fill="#eee" font-weight="600">Red Team Operations (CRTOM)</text><text x="185" y="419" fill="#777" font-size="13">Red Team Leaders</text><rect x="120" y="442" width="560" height="62" rx="12" fill="#1a1a1a" stroke="#2a2a2a"/><circle cx="152" cy="473" r="14" fill="#0d2436"/><path d="M145 473l5 5 9 -10" fill="none" stroke="#0099ff" stroke-width="3" stroke-linecap="round" stroke-linejoin="round"/><text x="185" y="470" fill="#eee" font-weight="600">Siber Olaylara Müdahale</text><text x="185" y="491" fill="#777" font-size="13">BTK Akademi</text><rect x="120" y="514" width="560" height="62" rx="12" fill="#1a1a1a" stroke="#2a2a2a"/><circle cx="152" cy="545" r="14" fill="#0d2436"/><path d="M145 545l5 5 9 -10" fill="none" stroke="#0099ff" stroke-width="3" stroke-linecap="round" stroke-linejoin="round"/><text x="185" y="542" fill="#eee" font-weight="600">Python ile Siber Güvenlik</text><text x="185" y="563" fill="#777" font-size="13">BTK Akademi</text><rect x="120" y="586" width="560" height="62" rx="12" fill="#1a1a1a" stroke="#2a2a2a"/><circle cx="152" cy="617" r="14" fill="#0d2436"/><path d="M145 617l5 5 9 -10" fill="none" stroke="#0099ff" stroke-width="3" stroke-linecap="round" stroke-linejoin="round"/><text x="185" y="614" fill="#eee" font-weight="600">Siber Güvenliğe Giriş</text><text x="185" y="635" fill="#777" font-size="13">BTK Akademi</text><rect x="120" y="658" width="560" height="62" rx="12" fill="#1a1a1a" stroke="#2a2a2a"/><circle cx="152" cy="689" r="14" fill="#0d2436"/><path d="M145 689l5 5 9 -10" fill="none" stroke="#0099ff" stroke-width="3" stroke-linecap="round" stroke-linejoin="round"/><text x="185" y="686" fill="#eee" font-weight="600">IT Essentials 7</text><text x="185" y="707" fill="#777" font-size="13">Cisco NetAcad</text><rect x="120" y="730" width="560" height="62" rx="12" fill="#1a1a1a" stroke="#2a2a2a"/><circle cx="152" cy="761" r="14" fill="#0d2436"/><path d="M145 761l5 5 9 -10" fill="none" stroke="#0099ff" stroke-width="3" stroke-linecap="round" stroke-linejoin="round"/><text x="185" y="758" fill="#eee" font-weight="600">Networking Essentials</text><text x="185" y="779" fill="#777" font-size="13">Cisco NetAcad</text><rect x="120" y="802" width="560" height="62" rx="12" fill="#1a1a1a" stroke="#2a2a2a"/><circle cx="152" cy="833" r="14" fill="#0d2436"/><path d="M145 833l5 5 9 -10" fill="none" stroke="#0099ff" stroke-width="3" stroke-linecap="round" stroke-linejoin="round"/><text x="185" y="830" fill="#eee" font-weight="600">Python Essentials 1 &amp; 2</text><text x="185" y="851" fill="#777" font-size="13">Cisco NetAcad</text><rect x="120" y="874" width="560" height="62" rx="12" fill="#1a1a1a" stroke="#2a2a2a"/><circle cx="152" cy="905" r="14" fill="#0d2436"/><path d="M145 905l5 5 9 -10" fill="none" stroke="#0099ff" stroke-width="3" stroke-linecap="round" stroke-linejoin="round"/><text x="185" y="902" fill="#eee" font-weight="600">JavaScript Essentials 1</text><text x="185" y="923" fill="#777" font-size="13">Cisco NetAcad</text></g></svg>