<svg xmlns="http://www.w3.org/2000/svg" width="1200" height="600" viewBox="0 0 1200 600">
<defs><linearGradient id="sb" x1="0" y1="0" x2="1" y2="1"><stop offset="0" stop-color="#141414"/><stop offset="1" stop-color="#080808"/></linearGradient>
<linearGradient id="sbar" x1="0" y1="0" x2="1" y2="0"><stop offset="0" stop-color="#0099ff"/><stop offset="1" stop-color="#7fe0ff"/></linearGradient></defs>
<rect width="1200" height="600" fill="url(#sb)"/>
<text x="600" y="120" font-family="Arial, Helvetica, sans-serif" font-size="66" font-weight="800" fill="#fff" text-anchor="middle">Yetkinlikler</text>
<g transform="translate(96 192)"><text x="0" y="30" font-family="Arial, Helvetica, sans-serif" font-size="30" fill="#ddd">Red Team Ops</text><text x="1008" y="30" font-family="Arial, Helvetica, sans-serif" font-size="27" fill="#7fe0ff" text-anchor="end">90%</text><rect x="0" y="42" width="1008" height="18" rx="9" fill="#222"/><rect x="0" y="42" width="907" height="18" rx="9" fill="url(#sbar)"/><text x="0" y="104" font-family="Arial, Helvetica, sans-serif" font-size="30" fill="#ddd">Ağ &amp; Sistem</text><text x="1008" y="104" font-family="Arial, Helvetica, sans-serif" font-size="27" fill="#7fe0ff" text-anchor="end">85%</text><rect x="0" y="116" width="1008" height="18" rx="9" fill="#222"/><rect x="0" y="116" width="857" height="18" rx="9" fill="url(#sbar)"/><text x="0" y="179" font-family="Arial, Helvetica, sans-serif" font-size="30" fill="#ddd">Python</text><text x="1008" y="179" font-family="Arial, Helvetica, sans-serif" font-size="27" fill="#7fe0ff" text-anchor="end">85%</text><rect x="0" y="191" width="1008" height="18" rx="9" fill="#222"/><rect x="0" y="191" width="857" height="18" rx="9" fill="url(#sbar)"/><text x="0" y="253" font-family="Arial, Helvetica, sans-serif" font-size="30" fill="#ddd">Pentest</text><text x="1008" y="253" font-family="Arial, Helvetica, sans-serif" font-size="27" fill="#7fe0ff" text-anchor="end">80%</text><rect x="0" y="265" width="1008" height="18" rx="9" fill="#222"/><rect x="0" y="265" width="806" height="18" rx="9" fill="url(#sbar)"/><text x="0" y="328" font-family="Arial, Helvetica, sans-serif" font-size="30" fill="#ddd">Kriptoloji</text><text x="1008" y="328" font-family="Arial, Helvetica, sans-serif" font-size="27" fill="#7fe0ff" text-anchor="end">75%</text><rect x="0" y="340" width="1008" height="18" rx="9" fill="#222"/><rect x="0" y="340" width="756" height="18" rx="9" fill="url(#sbar)"/></g></svg>